<svg xmlns="http://www.w3.org/2000/svg" xmlns:xlink="http://www.w3.org/1999/xlink" width="1275.453" height="1070.098" viewBox="0 0 1275.453 1070.098">
  <defs>
    <filter id="b" x="774.1" y="-8553.383" width="305.595" height="32766" filterUnits="userSpaceOnUse" color-interpolation-filters="sRGB">
      <feFlood flood-color="#fff" result="bg"/>
      <feBlend in="SourceGraphic" in2="bg"/>
    </filter>
    <mask id="a" x="774.1" y="-8553.383" width="305.595" height="32766" maskUnits="userSpaceOnUse">
      <g filter="url(#b)"/>
    </mask>
    <linearGradient id="c" x1="569.59" y1="1034.411" x2="951.368" y2="1036.683" gradientTransform="matrix(-0.9, -0.435, -0.216, 0.447, 1839.667, 803.35)" gradientUnits="userSpaceOnUse">
      <stop offset="0" stop-color="#fff"/>
      <stop offset="1" stop-color="#666"/>
    </linearGradient>
    <filter id="e" x="774.1" y="858.148" width="305.595" height="152.977" filterUnits="userSpaceOnUse" color-interpolation-filters="sRGB">
      <feFlood flood-color="#fff" result="bg"/>
      <feBlend in="SourceGraphic" in2="bg"/>
    </filter>
    <mask id="d" x="774.1" y="858.148" width="305.595" height="152.977" maskUnits="userSpaceOnUse">
      <g mask="url(#a)" filter="url(#e)">
        <path d="M774.1,858.148s257.17,140.64,271.861,147.744,29.453,6.956,32.973-.33-5.527-18.949-20.215-26.051S774.1,858.148,774.1,858.148Z" fill="url(#c)" style="mix-blend-mode: multiply"/>
      </g>
    </mask>
    <linearGradient id="f" data-name="Névtelen színátmenet 4" x1="578.27" y1="1034.479" x2="950.991" y2="1036.697" gradientTransform="matrix(-0.9, -0.435, -0.216, 0.447, 1839.667, 803.35)" gradientUnits="userSpaceOnUse">
      <stop offset="0.058" stop-color="#fff"/>
      <stop offset="0.065" stop-color="#fff5d7"/>
      <stop offset="0.078" stop-color="#ffe498"/>
      <stop offset="0.089" stop-color="#ffd86a"/>
      <stop offset="0.097" stop-color="#ffd14e"/>
      <stop offset="0.102" stop-color="#ffce43"/>
      <stop offset="0.129" stop-color="#feca40" stop-opacity="0.833"/>
      <stop offset="0.163" stop-color="#fdc63d" stop-opacity="0.648"/>
      <stop offset="0.193" stop-color="#fdc33b" stop-opacity="0.513"/>
      <stop offset="0.218" stop-color="#fcc139" stop-opacity="0.43"/>
      <stop offset="0.234" stop-color="#fcc039" stop-opacity="0.4"/>
      <stop offset="0.976" stop-color="#fff" stop-opacity="0.1"/>
    </linearGradient>
    <linearGradient id="g" data-name="Névtelen színátmenet 195" x1="440.292" y1="1119.591" x2="481.154" y2="867.313" gradientTransform="matrix(1.166, 0.056, 0.056, 1.17, -115.878, -192.899)" gradientUnits="userSpaceOnUse">
      <stop offset="0.14" stop-color="#524bb4"/>
      <stop offset="0.758" stop-color="#524bb4" stop-opacity="0"/>
    </linearGradient>
    <linearGradient id="h" x1="102.156" y1="983.86" x2="123.822" y2="850.093" gradientTransform="matrix(1.96, -0.105, -0.105, 1.952, 63.153, -859.384)" xlink:href="#g"/>
    <linearGradient id="i" data-name="Névtelen színátmenet 56" x1="424.295" y1="979.308" x2="453.163" y2="801.074" gradientTransform="matrix(1.96, -0.105, -0.105, 1.952, 63.153, -859.384)" gradientUnits="userSpaceOnUse">
      <stop offset="0.14" stop-color="#524bb4"/>
      <stop offset="0.245" stop-color="#524bb4" stop-opacity="0.738"/>
      <stop offset="0.366" stop-color="#524bb4" stop-opacity="0.476"/>
      <stop offset="0.482" stop-color="#524bb4" stop-opacity="0.269"/>
      <stop offset="0.589" stop-color="#524bb4" stop-opacity="0.121"/>
      <stop offset="0.684" stop-color="#524bb4" stop-opacity="0.032"/>
      <stop offset="0.758" stop-color="#524bb4" stop-opacity="0"/>
    </linearGradient>
    <linearGradient id="j" data-name="Névtelen színátmenet 6" x1="150.492" y1="379.011" x2="-37.09" y2="379.011" gradientTransform="matrix(-1, 0, 0, 1, 1211.94, 0)" gradientUnits="userSpaceOnUse">
      <stop offset="0.027" stop-color="#ffe18c"/>
      <stop offset="0.031" stop-color="#fde08d"/>
      <stop offset="0.131" stop-color="#ced0a0"/>
      <stop offset="0.234" stop-color="#a6c3b1"/>
      <stop offset="0.339" stop-color="#85b8be"/>
      <stop offset="0.447" stop-color="#6bafc9"/>
      <stop offset="0.558" stop-color="#59a9d0"/>
      <stop offset="0.675" stop-color="#4fa5d5"/>
      <stop offset="0.808" stop-color="#4ba4d6"/>
      <stop offset="0.956" stop-color="#2180c2"/>
    </linearGradient>
    <linearGradient id="k" data-name="Névtelen színátmenet 3" x1="369.685" y1="318.502" x2="1110.057" y2="305.235" gradientUnits="userSpaceOnUse">
      <stop offset="0.027" stop-color="#ffe18c"/>
      <stop offset="0.061" stop-color="#e7d996"/>
      <stop offset="0.126" stop-color="#becba7"/>
      <stop offset="0.196" stop-color="#9abfb5"/>
      <stop offset="0.269" stop-color="#7db5c1"/>
      <stop offset="0.347" stop-color="#67adca"/>
      <stop offset="0.431" stop-color="#57a8d1"/>
      <stop offset="0.527" stop-color="#4ea5d5"/>
      <stop offset="0.66" stop-color="#4ba4d6"/>
      <stop offset="0.988" stop-color="#2180c2"/>
    </linearGradient>
    <linearGradient id="l" data-name="Névtelen színátmenet 40" x1="1125.088" y1="400.039" x2="1069.236" y2="400.285" gradientUnits="userSpaceOnUse">
      <stop offset="0" stop-color="#ffe18c"/>
      <stop offset="0.083" stop-color="#e4d897"/>
      <stop offset="0.241" stop-color="#b6c8aa"/>
      <stop offset="0.4" stop-color="#8fbbba"/>
      <stop offset="0.556" stop-color="#71b1c6"/>
      <stop offset="0.71" stop-color="#5caacf"/>
      <stop offset="0.859" stop-color="#4fa5d4"/>
      <stop offset="1" stop-color="#4ba4d6"/>
    </linearGradient>
    <linearGradient id="m" x1="393.455" y1="270.001" x2="740.879" y2="270.001" gradientUnits="userSpaceOnUse">
      <stop offset="0" stop-color="#f88819"/>
      <stop offset="0.682" stop-color="#ffce43"/>
    </linearGradient>
    <linearGradient id="n" x1="409.373" y1="326.528" x2="629.909" y2="326.528" xlink:href="#m"/>
    <linearGradient id="o" data-name="Névtelen színátmenet 57" x1="633.147" y1="231.998" x2="710.762" y2="183.171" gradientUnits="userSpaceOnUse">
      <stop offset="0" stop-color="#f88819"/>
      <stop offset="0.998" stop-color="#ffce43"/>
    </linearGradient>
    <linearGradient id="p" x1="642.539" y1="387.064" x2="501.241" y2="238.621" xlink:href="#m"/>
    <linearGradient id="q" x1="393.24" y1="268.926" x2="693.72" y2="268.926" xlink:href="#m"/>
    <linearGradient id="r" x1="394.576" y1="262.035" x2="740.669" y2="262.035" xlink:href="#m"/>
  </defs>
  <g style="isolation: isolate">
    <g>
      <g mask="url(#d)">
        <path d="M774.1,858.148s257.346,140.294,271.861,147.744c11.78,6.046,21.651,4.671,25.172-2.615s2.274-16.664-12.414-23.766S774.1,858.148,774.1,858.148Z" fill="url(#f)"/>
      </g>
      <g>
        <path d="M344.547,1024.587c.845,3.65,60.393,68.156,158.151,37.07,107.6-34.217,140.787-146.7,79.321-163-32.578-8.64-115.494,27.739-170.384,46.054C381.729,954.69,338.319,997.706,344.547,1024.587Z" opacity="0.23" fill="url(#g)" style="mix-blend-mode: multiply"/>
        <path d="M4.776,943.171c.808,5.971,82.192,68.613,260.938,35.184,195.69-36.6,65.786-125.11,20.477-150.1S179.14,826.667,83.267,866.7C31.032,888.505-1.172,899.2,4.776,943.171Z" opacity="0.23" fill="url(#h)" style="mix-blend-mode: multiply"/>
        <path d="M405.991,856.364c61.653,68.271,192.311,32.66,268.906,2.019,89.319-35.73,244.238-32.649,306.989,8.6,53,34.841,76.992,97.112,177,96.829,122.219-.346,155.845-137.94,64.769-180.242-124.039-57.611-377.081-97.3-462.156-99.963-51.717-1.621-172.9-35.81-268.778,4.219C440.482,709.639,337.287,780.285,405.991,856.364Z" opacity="0.23" fill="url(#i)" style="mix-blend-mode: multiply"/>
        <path d="M512.357,993.977a1.54,1.54,0,1,1-1.54-1.54A1.54,1.54,0,0,1,512.357,993.977Z" fill="#fff"/>
        <path d="M464.981,1035.013a1.54,1.54,0,1,1-1.54-1.539A1.54,1.54,0,0,1,464.981,1035.013Z" fill="#fff"/>
      </g>
      <g>
        <path d="M234.569,143.106a33.569,33.569,0,0,1,1.79,4.711q1.791,2.921-.377,8.622a4.9,4.9,0,0,0-.377,1.084q-1.695,4.853-.235,7.3l2.073,2.308q9.61,10.413,9.847,8.387a53.888,53.888,0,0,0-.518-7.444,79.392,79.392,0,0,0-2.309-11.025,28.248,28.248,0,0,0-3.863-8.764Z" fill="#e6e6e6" fill-rule="evenodd"/>
        <path d="M161.069,145.6q8.717,12.532,26.431,20.4,5.843,2.59,34.4,17.762a149.4,149.4,0,0,0,2.45-14.841q.707-4.476-.283-4.947a29.1,29.1,0,0,0-5.7-1.7,91.349,91.349,0,0,1-25.018-8.386,79.973,79.973,0,0,1-21.014-15.219q-3.629-3.156-3.486-5.559.236-2.546,5.182-3.157Z" fill="#e6e6e6" fill-rule="evenodd"/>
        <path d="M143.825,220.328a47.572,47.572,0,0,0-4.524-2.544q-2.167-1.131-4.146-1.979a5.65,5.65,0,0,0-4.24-.236q-2.167.612-1.556,10.931.471,10.318,1.225,18.375a21.562,21.562,0,0,0,5.325,13.475,78.336,78.336,0,0,0,13,11.543q8.1,5.937,11.026,7.256,2.921,1.366,3.911-2.921.234-14.935-.378-30.342a15.916,15.916,0,0,0-2.685-7.162q-1.085-1.367-1.555-1.932A56.05,56.05,0,0,0,143.825,220.328Z" fill="#f0f0ff" fill-rule="evenodd"/>
        <path d="M202.342,230.175l3.58,22.286,31.474-6.455q1.131-8.481-1.979-22.9Z" fill="#f0f0ff" fill-rule="evenodd"/>
        <path d="M426.337,400.08c-5.249-5.655-18.141-13.439-18.141-13.439s-14.567-2.429-17.256-1.864c-.874.183-3.562-3.274-4.957-2.623-3.626,1.693-8.478,6.956-8.478,6.956-2.881,2.854-3.773,4.487-5.929,9.063a160.583,160.583,0,0,1,9.551,14.331c2.684,9.737,19,26.05,30.562,30.522,6.425-1.638-4.313-7.118-8.1-12.823-2.36-3.558-4.2-6.453-3.742-6.406,1.264.134,3.1,3.2,7.987,7.584,6.808,6.1,16.749,11.749,18.937,9.873,3.456-2.962-6.663-6.23-12.654-12.341-4.081-4.162-6.538-9.046-6.193-9.2a49.053,49.053,0,0,0,8.619,8.612c6.481,5.342,15.118,10.958,17.947,8.395,2.692-2.961-7.629-7.494-14.181-13.686-4.358-4.12-6.25-6.672-5.99-7.225,1.884,2.894,3.831,4.144,9.4,8.077,6.754,4.77,13.394,8.67,15.347,7.808,5.167-2.279-7.18-10.59-17.77-18.937-5.6-5.732-5.593-9.435-5.632-11.353C431.474,412.362,429.256,403.224,426.337,400.08Z" fill="#ffaa83" fill-rule="evenodd"/>
        <path d="M375.488,391.711l9.418-8.775s10.165-3.613,11.131-6.718c-5.272-12.02-24.322-35.557-29.252-42.561q-3.974-5.643-7.193-10.339-10-14.49-12.884-19.836-8.466-32.522-13.219-48.789c-5.392-18.623-15.718-65.612-21.908-75.034q-8.748-13.367-23.216-17.285-14.652-3.51-27.254,1.528a1.114,1.114,0,0,1-.4.2,9.534,9.534,0,0,0-1.791.808,29.155,29.155,0,0,0-2.719,1.565q-7.386,4.965-8.818,15.569l-.056.539a12.442,12.442,0,0,0,.083,2.4q-.8,15.027,7.2,34.19,18.555,43.47,25.265,56.861,3.912,7.938,12.267,23.727,10.845,20.547,16.835,30.833a201.489,201.489,0,0,0,11.792,18.277q2.173,3,4.928,6.6,4.552,5.967,10.691,13.593,9.822,12.151,16.391,21.881c2.887,4.436,4.156,6.406,10.241,11.364C367.735,406.2,373.565,395.282,375.488,391.711Z" fill="#b3a3cf" fill-rule="evenodd"/>
        <path d="M105.807,211.706c.21-7.129,59.434,182.132,56.671,193.975a232.474,232.474,0,0,0-4.471,23.179c-.822,2.362-.327,4.144,1.455,5.378a7.8,7.8,0,0,0,2.057.981,24.341,24.341,0,0,0,3.786.949q41.506,11.389,59.751,15.312,33.772,7.245,61.1,7.393a79.533,79.533,0,0,0,29.5-18.1,15.836,15.836,0,0,0,5.842-10.218c.464-3.67-1.2-11.9-1.2-11.9a1.036,1.036,0,0,1-.327.211L298.98,223.928c.011-.274.032-.548.042-.823a125.4,125.4,0,0,0-.379-21.713q-1.075-9.142-2.774-20.174-1.709-11.167-4.387-17.01-7.387-8.62-23.79-11.442-.143,0-13.857-1.792a78.011,78.011,0,0,1-13.235-2.689,28.263,28.263,0,0,1,3.86,8.763,77.568,77.568,0,0,1,2.309,11.031,53.32,53.32,0,0,1,.517,7.445q-.237,2.025-9.839-8.394l-2.078-2.3a8.607,8.607,0,0,1-4.714,4.239,9.68,9.68,0,0,1-6.306-.148,150.242,150.242,0,0,1-2.457,14.848Q193.34,168.6,187.5,166q-17.716-7.862-26.438-20.4-5.22,7.673-16.672,16.061-6.406,4.715-19.552,13.952-10.788,8.147-15.27,16.156C105.986,198.091,105.807,211.706,105.807,211.706Z" fill="#bfaedd" fill-rule="evenodd"/>
        <path d="M189.261,457.233a99.865,99.865,0,0,0-8.215-10.729q-.889-7.859,3.158-12.4l11.2-6.347s11.264,1.345,12.924-1.451c-2.335-12.915-15.931-42.732-19.1-50.69q-2.553-6.412-4.593-11.727-6.363-16.417-7.923-22.287-.677-33.6-1.52-50.525-1.376-29.05-6.22-50.08,8.094-12.087,2.346-27.991-5.4-15.033-18.563-22.206-13.435-6.819-26.863-4.847a1.115,1.115,0,0,1-.434.1,9.517,9.517,0,0,0-1.929.37,29.035,29.035,0,0,0-3.009.891q-8.336,3.113-12.193,13.093l-.18.512a12.409,12.409,0,0,0-.477,2.354q-4.272,14.43-.94,34.928,7.947,46.592,11.361,61.175,1.961,8.63,6.419,25.928,5.772,22.5,9.21,33.9a201.183,201.183,0,0,0,7.221,20.516q1.419,3.422,3.26,7.564,3.042,6.861,7.24,15.7,6.731,14.1,10.859,25.091,2.666,7.479,9.815,16.834a34.177,34.177,0,0,0,12.122,10.553,15.671,15.671,0,0,0,3.7,1.55Z" fill="#b3a3cf" fill-rule="evenodd"/>
        <polygon points="306.373 241.059 306.656 241.106 306.703 241.106 306.373 241.059" fill="#373799" fill-rule="evenodd"/>
        <path d="M229.386,141.716q-.066,2.232-.188,4.5l6.407,11.308a4.9,4.9,0,0,1,.377-1.084q2.167-5.7.377-8.622a33.569,33.569,0,0,0-1.79-4.711,11.243,11.243,0,0,1-3.911-.755Q230.012,142.033,229.386,141.716Z" fill="#bcc1ee" fill-rule="evenodd"/>
        <path d="M174.025,129.96q-4.947.613-5.182,3.157-.143,2.4,3.486,5.559l1.6-1.931Z" fill="#bcc1ee" fill-rule="evenodd"/>
        <path d="M252.991,613.131q.235,1.7,4.24,19.175a94.6,94.6,0,0,1,2.922,19.46q2.544,18.8-3.77,29.4-4,6.644-5.936,9.706-1.837,2.166-3.675,4.382-12.486,16.63-15.265,31.1a300.686,300.686,0,0,1-5.136,36.655,203.021,203.021,0,0,1-10.648,36.421v.518a141.016,141.016,0,0,0-.142,21.862,39.632,39.632,0,0,0,11.167,12.061,25.174,25.174,0,0,0,2.261,1.272,24.35,24.35,0,0,0,3.675,1.462,85.384,85.384,0,0,0,13.381-.331l2.168-3.062q7.161-17.952,20.683-42.5,9.8-17.481,18.187-44.571l.141.093q25.63-64.972,27.94-72.982,4-14.229,6.643-29.165,2.449-13.946,5.984-30.86,8.1-38.729,5.465-85.609a319.41,319.41,0,0,0-17.621-86.835,79.719,79.719,0,0,1-29.494,18.093,109.108,109.108,0,0,1-13.523,14.795,52.962,52.962,0,0,1-16.961,10.459q-1.225,23.558-1.6,64.5Q253.6,595.037,252.991,613.131Z" fill="#651dc4" stroke="#651dc4" stroke-miterlimit="10" stroke-width="0.5" fill-rule="evenodd"/>
        <path d="M178.431,833.867q.021.6.047,1.2.037.962.07,1.908a19.715,19.715,0,0,0,9.47,7.633q1.085.376,2.168.848a37.358,37.358,0,0,0,9.989,1.46l12.956-1.79,3.3-2.215q.13-3.6,0-7.8-.023-.613-.048-1.249-.113-2.707-.33-5.653-.235-3.252-.471-6.408a141.016,141.016,0,0,1,.142-21.862v-.518q.471-10.554,4.24-37.5,3.534-24.075,4.476-39.954.847-14.229,6.926-32.934t11.4-28.552a73.1,73.1,0,0,0,7.3-19.411q1.932-9.707,2.544-15.077.471-5.466.377-12.863.613-18.093,1.084-64.5.377-40.943,1.6-64.5a52.962,52.962,0,0,0,16.961-10.459,109.108,109.108,0,0,0,13.523-14.795q-27.329-.141-61.109-7.4-18.234-3.91-59.743-15.312a177.643,177.643,0,0,0-3.393,28.645,101.255,101.255,0,0,0,2.875,28.789q4.287,25.16,9.234,74.112,5.23,50.037,9.141,73.972a81.2,81.2,0,0,1-3.911,23.417q-1.789,6.076-8.151,22.473a191.613,191.613,0,0,0-7.491,22.71,71.02,71.02,0,0,0-1.979,23.7q3.3,17.1,10.6,51.262A365.92,365.92,0,0,1,178.431,833.867Z" fill="#6e20cf" stroke="#6e20cf" stroke-miterlimit="10" stroke-width="0.5" fill-rule="evenodd"/>
        <path d="M226.53,462.565c-2.091-7.427-14.013-25.416-14.013-25.416s-7.85-3.629-10.5-4.353c-.862-.236-2.231-5.194-3.769-5.251-4-.148-10.163,2.975-10.163,2.975q-5.8,1.838-9.044,9.051a99.75,99.75,0,0,1,1.591,13.419c-2.288,11.013,3.479,35.566,13.241,41.935,7.492,4.9,15.377,11.019,24.77,3.366,3.833-3.123-2.557-24.894-.538-29.034C227.169,486.219,227.692,466.7,226.53,462.565Z" fill="#ffaa83" fill-rule="evenodd"/>
        <path d="M250.657,898.677c4.554,2.355,10.108,4.293,13.972,4.357q2.071-.1,4.287-.1a184.611,184.611,0,0,0,37.5-6.455q1.932-6.407-3.533-11.167a20.747,20.747,0,0,0-11.638-4.711,25.212,25.212,0,0,1-6.455-1.743,35.929,35.929,0,0,1-10.554-6.926,57.189,57.189,0,0,1-5.324-5.56q-3.158-3.627-7.774-9.234a65.759,65.759,0,0,1-5.748-9.235q-1.415-3.156-3.251-6.926-1.385-2.841-2.9-5.819-.324-.643-.659-1.3c-.122-.219-.239-.438-.353-.659l-2.168,3.062a85.384,85.384,0,0,1-13.381.331,24.35,24.35,0,0,1-3.675-1.462,25.174,25.174,0,0,1-2.261-1.272,39.632,39.632,0,0,1-11.167-12.061q.236,3.157.471,6.408.219,2.944.33,5.653.025.636.048,1.249.13,4.2,0,7.8c.156,2.608-.849,5.33-.849,7.433C216.3,851.886,236.235,895.374,250.657,898.677Z" fill="#431b72" fill-rule="evenodd"/>
        <path d="M252.52,906.8a20.2,20.2,0,0,0-.141-5.7,16.7,16.7,0,0,0-.377-1.7,11.852,11.852,0,0,0-3.487-5.23l-4.617-4.382a93,93,0,0,1-11.308-12.65q-1.06-1.428-2.073-2.9-1.084-1.7-4.759-7.632-4.712-7.539-5.937-9.706-2.071-4.617-3.156-6.926,0-3.156-.235-7.068l-3.3,2.215-12.956,1.79a37.358,37.358,0,0,1-9.989-1.46q-1.083-.471-2.168-.848a19.715,19.715,0,0,1-9.47-7.633q-2.544,10.46-2.827,26.951-.1,9.936-.188,16.348-.147,8.753-.283,10.979a22.07,22.07,0,0,0,5.7,5.229,63.14,63.14,0,0,0,6.926,3.675q9,12.863,29.542,12.863a124.445,124.445,0,0,0,17.857-1.6q11.5-1.791,16.631-2.4Q252.237,907.932,252.52,906.8Z" fill="#4b1f80" fill-rule="evenodd"/>
        <path d="M156.993,64.941a51.861,51.861,0,0,0,2.709,17.15,46.875,46.875,0,0,0,14.323,21.249c.094.077.188.156.283.235V96.649c-.1-.177-.19-.35-.283-.518q-6.036-11.5-.094-18.045.612.753,5.56,9.093,3.156,5.607,8.292,4.617,1.083-2.025,2.167-4a.366.366,0,0,0,.142-.33l.235-.377Q195.652,77,196.405,74.694v-.142a19.642,19.642,0,0,0,.872-8.08Q176.265,66.439,156.993,64.941Z" fill="#ea7400" stroke="#ea7400" stroke-miterlimit="10" fill-rule="evenodd"/>
        <path d="M259.941,60.111q3.146.3,7.7.542,15.924.707,23.086,2.167a60.8,60.8,0,0,0,7.681,1.273,4.733,4.733,0,0,0,3.609-1.412c-8.386-11.967-18.969-14.231-32.444-7.635q-4.869,2.414-9.73,4.547-.464.2-.919.4Q259.416,60.049,259.941,60.111Z" fill="#431b72" stroke="#431b72" stroke-miterlimit="10" fill-rule="evenodd"/>
        <path d="M261.472,75.636a82.379,82.379,0,0,0-1.531-15.525q-.525-.063-1.014-.118-3.108,1.367-6.218,2.639a30.669,30.669,0,0,1-9.8,2.309q-23.764,1.564-45.631,1.531a19.642,19.642,0,0,1-.872,8.08v.142Q195.65,77,190.327,87.085l-.235.377a.366.366,0,0,1-.142.33q4.005-1.084,17.245-5.089,19.694-5.937,26.1-7.067Z" fill="#e1825f" stroke="#e1825f" stroke-miterlimit="10" fill-rule="evenodd"/>
        <path d="M224.345,168.925a9.7,9.7,0,0,0,6.313.141,8.583,8.583,0,0,0,4.712-4.24q-1.461-2.451.235-7.3L229.2,146.215q.121-2.266.188-4.5-17.008-8.417-24.594-13.594-13.994-9.564-14.842-23.934-4.239,2.544-8.857-.613a73.319,73.319,0,0,1-6.785-6.926v6.926c-.095-.079-.189-.158-.283-.235v26.62l-.094,6.785-1.6,1.931A79.973,79.973,0,0,0,193.343,153.9a91.349,91.349,0,0,0,25.018,8.386,29.1,29.1,0,0,1,5.7,1.7Q225.052,164.449,224.345,168.925Z" fill="#e1825f" fill-rule="evenodd"/>
        <path d="M174.308,96.649a73.319,73.319,0,0,0,6.785,6.926q4.617,3.158,8.857.613.849,14.37,14.842,23.934,7.585,5.179,24.594,13.594.626.316,1.272.635a11.243,11.243,0,0,0,3.911.755,20.945,20.945,0,0,0,2.874-.142,42.5,42.5,0,0,0,5.607-2.309,19.112,19.112,0,0,0,7.02-7.915q3.534-7.3,9.235-34.865a106.207,106.207,0,0,0,2.167-22.239H233.3q-6.408,1.131-26.1,7.067-13.24,4-17.245,5.089-1.083,1.978-2.167,4-5.136.99-8.292-4.617-4.947-8.338-5.56-9.093-5.942,6.54.094,18.045C174.118,96.3,174.211,96.472,174.308,96.649Z" fill="#ffb087" stroke="#ffb087" stroke-miterlimit="10" fill-rule="evenodd"/>
        <g>
          <path d="M303.825,58.813a7.714,7.714,0,0,1-1.46,4.29q-12.57-17.955-32.79-8.06-4.875,2.415-9.73,4.55c-.31.14-.61.27-.92.4q-3.1,1.365-6.22,2.64a30.5,30.5,0,0,1-9.8,2.31q-23.76,1.56-45.63,1.53-21.015-.03-40.28-1.53c-.35-.04-.71-.07-1.06-.1v-9.23a1.064,1.064,0,0,0,.47.09c.04-.71.09-1.42.14-2.12q2.415-28.56,24.59-45.28a36.392,36.392,0,0,1,18.14-7.2q5.235-.2,10.56-.38-1.74.705-3.96,5.65a24.021,24.021,0,0,0-1.63,7.92,98.575,98.575,0,0,0-.02,11.35q.435,10.98,1.06,24.72.195,4.26.4,8.78h1.09a65.045,65.045,0,0,1,10.31-9.94q17.115-13.065,40.76-11.21l4.22.33,5.48.42a72.97,72.97,0,0,1,33.17,13.1A7.562,7.562,0,0,1,303.825,58.813Z" fill="#4b1f80" fill-rule="evenodd"/>
          <path d="M267.55,38.744q-.829-2.583-1.861-5.041a60.455,60.455,0,0,0-7.562-13.192Q240.034-3.849,209.833.722q-1.743.707-3.958,5.654a23.876,23.876,0,0,0-1.625,7.915,99.008,99.008,0,0,0-.024,11.355q.432,10.971,1.06,24.712.189,4.262.4,8.787h1.084A65.31,65.31,0,0,1,217.089,49.2q17.117-13.068,40.755-11.214l4.217.33Z" fill="#b3a3cf" fill-rule="evenodd"/>
        </g>
        <line x1="240.6" y1="148.288" x2="234.569" y2="143.106" fill="none"/>
      </g>
      <g>
        <path d="M179.737,372.836c1.76,4.338,8.838,73.527,11.628,82.795,2.154,7,6.225,10.664,12.648,16.048,4.81,4.032,11.628,15.01,14.336,21.768.4,1,1.827,5.988,1.615,6.765-.472,1.724.734,6.373-.226,8.764-6.157,3.426-5.622-18.271-11.256-15.566-6.1,2.929,7.332,40.242,2.582,44.127-1.179.964-6.209-26.548-9.811-22.474-.511.578,7.268,24.479,4.629,25.436-3.632,1.317-10.644-25.627-11.8-25.53-1.707.143,9.233,24.038,5.05,25.365-3.474,1.1-9.739-26.2-10.652-27.439-.976-1.322,5.778,20.216,3.27,20.747-3.757,1.353-12.018-39.2-12.018-39.2l-25.006-122.31C153.069,369.2,177.081,365.057,179.737,372.836Z" fill="#ed9870" fill-rule="evenodd"/>
        <path d="M158.247,257.523l4.15-3.3q9.151,6.366,11.871,20.185,1.572,7.836,3.246,24.009.421,14.061,4.18,36.413c2.126,12.793,3.684,22.444,4.766,29.811q.57,4,.832,6.27l-.1.015a.852.852,0,0,0-.123.031q-.9.153-1.857.356c-.419.085-.849.18-1.289.282q-4.344.975-9.616,2.7-1.148.372-2.327.778-5.061,1.84-14.973,5.721-1.042-5-3.795-14.74l1.03-.544,3.056-1.96q.89-.678,1.7-1.382l-.083-.025q7.693-6.836,7.911-19.292.069-7.421-4.673-28.353.793-24.3.641-28.662Q162.5,269.456,158.247,257.523Z" fill="#4ba4d6" fill-rule="evenodd"/>
        <path d="M92.791,131.626q-.453-.4-.889-.846A13.631,13.631,0,0,1,87.7,120.722,13.969,13.969,0,0,1,91.9,110.533a13.774,13.774,0,0,1,10.058-4.119,14.12,14.12,0,0,1,10.189,4.119,15.964,15.964,0,0,1,1.886,2.341A48.352,48.352,0,0,0,94.85,128.526Q93.738,130.053,92.791,131.626Z" fill="#2180c2" stroke="#2180c2" stroke-miterlimit="10" fill-rule="evenodd"/>
        <path d="M193.785,333.683h.09c-.38.61-.78,1.22-1.21,1.82l-2.35,2.78-.82.82a41.5,41.5,0,0,0-8.28,9.02c-1.71,2.78-3.04,7.28-3.99,13.53-3.8,7.317-5.614,14.253-11.66,26.7q-3.99,17.7,3.86,30.09,5.115,13.62-10.45,17.52a157.55,157.55,0,0,1-37.85,4.16,178.622,178.622,0,0,1-59.14-11.53q14.175-14.745,17.56-22.11c.44-1.02.84-2.02,1.21-3.02a46.163,46.163,0,0,0,3.17-20.79q-1.395-16.335-9.63-39.1-10.1-25.155-14.09-38.03c-19.879-29.05-15.09-59.931,11.36-61.47q3.6-.915,8.07-2.34c.83-.29,24.81-23.69,24.06-20.34q-.39,4.38,2.77,5.81,6.6,3.9,20.99,14.31a113.4,113.4,0,0,0,15.09,9.17,56.12,56.12,0,0,0,8.36,3.36q1.95-4.035.61-10.19a16.787,16.787,0,0,0-6.72-9.8q4.035,1.515,11.32,3.47c2.19-1.21,4.25-2.41,6.15-3.6q7.59,10.155,12.71,25.71,1.425,4.125,7.84,27.58,10.71,18.6,12.84,25.71Q199.12,324.878,193.785,333.683Z" fill="#2180c2" fill-rule="evenodd"/>
        <path d="M116.528,363.037a18.186,18.186,0,0,0-17.429,4.77,23.322,23.322,0,0,0-7.371,16.865q-9.061-26.923-13.96-40.321-8.5-23.282-17.56-38.8a52.778,52.778,0,0,1-9.061-17,54.689,54.689,0,0,1-3.035-19.9q1.344-23.326,23.456-24.583A34.147,34.147,0,0,1,88.13,254.908a43.464,43.464,0,0,1,7.8,12.747,15.433,15.433,0,0,1,.823,2.124l.781,2.125q.087.216.217.563,1.213,3.9-2.038,11.143-3.078,7.067-1.778,10.969,7.718,19.554,12.4,33.861Q112.712,347,116.528,363.037Z" fill="#4ba4d6" fill-rule="evenodd"/>
        <path d="M197.14,155.262q-3.075-16.77-16.3-31.52-9.855-12.525-27.4-15.99a58.691,58.691,0,0,0-18.37-.7c-.28-.35-.56-.7-.84-1.04q-16.26-19.635-37.11-19.94-20.775-.345-36.6,19.72-16.725,21.375-16.73,50.04,0,3.12,2.64,19.07,2.685,16.14,2.69,19.12a70.158,70.158,0,0,1-7.72,32.52q-4.11,7.935-16.82,24.67-11.925,15.57-16.86,26.62Q-.005,295.007,0,316.242a95.73,95.73,0,0,0,2.38,18.91,115.156,115.156,0,0,0,10.37,29.48q20.325,39.195,63.21,39.19c1.65,0,3.12-.023,4.7-.1,2.75-7.3,3.95-14.237,3.32-20.8-.93-10.89-4.067-23.959-9.567-39.129-6.73-16.77-11.476-29.667-14.136-38.257A51.6,51.6,0,0,1,51.2,288.8a54.7,54.7,0,0,1-3.03-19.9q1.335-23.325,23.45-24.58,3.6-.915,8.07-2.34c.83-.29,18.87-18.79,24.02-20.67,1.62-4.62,1.4-14.87,1.69-17.1q6.24.09,9.49.31a143.922,143.922,0,0,0,19.25-22.77q8.94-13.65,11.49-27.31c1.36.29,3.02.61,4.97.95q4.08.735,9.9,1.65,9.93,1.56,21.25,9.37,11.4,7.8,5.24,20.16Q200.955,174.9,197.14,155.262ZM94.9,128.772c-.74,1.02-1.42,2.05-2.05,3.1a11.667,11.667,0,0,1-.89-.84,13.626,13.626,0,0,1-4.21-10.06,13.947,13.947,0,0,1,4.21-10.19,13.736,13.736,0,0,1,10.05-4.12,14.1,14.1,0,0,1,10.19,4.12,15.882,15.882,0,0,1,1.89,2.34A48.436,48.436,0,0,0,94.9,128.772Z" fill="#431b72" fill-rule="evenodd"/>
        <path d="M200.635,912.013c-.11,1.88-.26,3.77-.43,5.68-.23,1.88-.55,2.76-.95,2.64a45.8,45.8,0,0,1-16.22,3.64,53.137,53.137,0,0,1-16.56-1.95q-3.99-.99-11.62-6.2-7.155-4.725-12.01-5.5c.4.6.78,1.22,1.13,1.86a20.852,20.852,0,0,1,2.38,8.76,6.542,6.542,0,0,1-1.13,7.89,7.379,7.379,0,0,1-3.98,2.3,64.608,64.608,0,0,1-13.31.78q-2.475-.09-4.95-.09a51.42,51.42,0,0,1-15.04-2.38,6.537,6.537,0,0,1-2.86-1.56,14.759,14.759,0,0,1-3.78-5.25q-1.515-3.555-3.2-7.28a19.657,19.657,0,0,1-6.46-5.38,5.866,5.866,0,0,1-1.09-2.21,29.726,29.726,0,0,1-.34-13.18c-.09-.49-.17-.97-.26-1.45q-.54-2.835-1.26-5.66a35.873,35.873,0,0,1-.76-4.1,29.978,29.978,0,0,1,3.81-19.08c.05.28.1.56.16.83a78.036,78.036,0,0,0-.87,10.64c0,1.19.03,2.34.09,3.47l31-.43-.74-2.13a51.932,51.932,0,0,1,12.92-1.43q6.675,0,13.14-.09a8.846,8.846,0,0,0,6.72-3.07,3.357,3.357,0,0,1,2.99-.09,14.575,14.575,0,0,1,6.2,4.25,60.036,60.036,0,0,1,4.29,5.85,30.213,30.213,0,0,0,2.9,3.77,52.449,52.449,0,0,0,5.53,5.34,49.973,49.973,0,0,0,5.27,3.81,20.814,20.814,0,0,0,4.34,2.04,53.253,53.253,0,0,1,12.57,6.55,4.318,4.318,0,0,1,1.6,1.77A11.638,11.638,0,0,1,200.635,912.013Z" fill="#481d7a" fill-rule="evenodd"/>
        <path d="M114.837,204.269q2.6,9.84,11.879,17.6,2.988,2.424,18.036,12.162a.2.2,0,0,1,.044.021,16.737,16.737,0,0,1,6.72,9.8q1.344,6.157-.607,10.189a56.627,56.627,0,0,1-8.368-3.36,112.623,112.623,0,0,1-15.087-9.17q-14.4-10.405-20.985-14.307-3.165-1.431-2.775-5.81a30,30,0,0,0,1-7.284q.216-6.807.65-10.145Q111.585,204.052,114.837,204.269Z" fill="#e1825f" fill-rule="evenodd"/>
        <path d="M123.985,859.506a86.911,86.911,0,0,0,21.591,0q.227-1.035.455-2.124a45.2,45.2,0,0,0,1.475,5.289q.258.744.542,1.431c1.532,3.642,3.458,6.623,6,8.3a8.845,8.845,0,0,1-6.72,3.078q-6.461.087-13.137.086A51.969,51.969,0,0,0,121.273,877a54.97,54.97,0,0,1-2.1-8.821q-.187-1-.521-3.4c1.2-.1,2.531-.181,3.469-.238Z" fill="#e1825f" fill-rule="evenodd"/>
        <path d="M156.112,237.523q-7.284-1.951-11.316-3.469a.2.2,0,0,0-.044-.021Q129.7,224.3,126.716,221.871q-9.277-7.761-11.879-17.6a144.3,144.3,0,0,0,19.25-22.762q8.931-13.658,11.489-27.314,2.04.432,4.965.953,4.086.737,9.906,1.648,9.928,1.561,21.245,9.365,11.4,7.8,5.246,20.16a68.777,68.777,0,0,1-7.718,23.152,123.365,123.365,0,0,1-13.96,20.074l-2.992,4.379Q159.406,235.7,156.112,237.523Z" fill="#ffaa83" fill-rule="evenodd"/>
        <path d="M177.226,361.65q9.408-2.34,20.247-9.581,8.325-6.633,12.617-9.886,1.008-.736,1.994-1.43,4.527-3.207,8.39-5.42.585-.342,1.148-.65.855-.477,1.67-.889a1.031,1.031,0,0,1,.108-.065l.087-.043a13.238,13.238,0,0,1,8.281-.737l3.23.932c.164.043.322.086.477.13s.294.086.433.13l3.252.911c.15.035.294.071.433.108l.066.022a1.165,1.165,0,0,0,.13.043,1.041,1.041,0,0,0,.13.043l.086.022q.087,3.9-4.812,5.029-2.688.52-8.108,1.344-4.812.78-5.853,6.157-.91,5.463,4.726,6.807,5.679,2.47,14.828,1.994,14.351-.649,15.348-.521-2.124,5.2-9.625,7.154a102.126,102.126,0,0,1-12.747,2.168q5.117,1.041,15.218-1.213,10.059-2.082,15.045-1.172a39.645,39.645,0,0,1-8.672,11.49Q246.032,385.582,229.3,384.8a76.505,76.505,0,0,1-11.142-1.778q-7.208-1.6-17.212-4.574c-.16-.054-.319-.1-.477-.152a120.832,120.832,0,0,0-17.646,4.293q-5.722,1.863-17.256,5.765-10.578,3.6-26.664,7.978L123.248,400.5l-11.273,2.992q-7.017,2.508-12.551-3.1-.581-.594-1.149-1.279-4.206-5.376-6.547-14.438A23.322,23.322,0,0,1,99.1,367.807a18.186,18.186,0,0,1,17.429-4.77q2.557,5.031,3.035,5.681,4.936-.932,14.264-1.865,6.321-.627,14.654-1.257Q166.951,364.121,177.226,361.65Z" fill="#ffaa83" fill-rule="evenodd"/>
        <path d="M118.912,864.773q.334,2.4.521,3.4a51.409,51.409,0,0,0,1.951,8.5l.737,2.125-31,.433q-.087-1.692-.086-3.468A78.429,78.429,0,0,1,91.9,865.12q.07.317.13.629a63.908,63.908,0,0,0,14.958.3Q114.265,865.177,118.912,864.773Z" fill="#ffaa83" fill-rule="evenodd"/>
        <path d="M121.123,440.124a157.844,157.844,0,0,0,37.85-4.161q6.373,16.561,0,45.263-5.679,25.493-30.913,42.272a568.142,568.142,0,0,1-.693,134.707q.216,12.27-6.157,43.572-5.549,27.271-2.9,43.573.13,19.032-.346,57.36.5,29.253,4.769,50.943.594,3,1.257,5.853l-1.864,5.029q-1.407.086-3.209.238-4.647.4-11.922,1.28a63.908,63.908,0,0,1-14.958-.3q-.06-.312-.13-.629c-.053-.27-.1-.545-.152-.823q-1.138-5.655-2.97-12.486-2.522-9.5-6.373-21.267-9.538-29.785-11.143-35.335-11.836-42.271-3.6-72.318,8.5-27.616,3.468-65.077-1.778-13.179-5.94-32.474-4.9-21.461-6.893-32.126-1.692-10.578-6.72-31.953-5.029-21.2-6.677-31.954-.78-2.556-1.691-5.115-18.99-52.895,18.773-95.6A178.513,178.513,0,0,0,121.123,440.124Z" fill="#481d7a" stroke="#481d7a" stroke-miterlimit="10" stroke-width="0.5" fill-rule="evenodd"/>
        <path d="M147.446,857.062c-.153.726-.345,1.787-.5,2.477a98.388,98.388,0,0,1-22.965-.033q-.663-2.855-1.257-5.853-4.275-21.692-4.769-50.943.475-38.327.346-57.36-2.645-16.3,2.9-43.573,6.374-31.3,6.157-43.572A568.142,568.142,0,0,0,128.06,523.5q25.233-16.779,30.913-42.272,6.373-28.7,0-45.263,15.565-3.9,10.449-17.516,1.431,2.687,2.645,5.462a182.852,182.852,0,0,1,17.646,72.535q5.939,36.68-3.469,91.134-2.558,15.045-8.5,45.133-5.115,27.056-6.893,45.177-8.195,31.519-13.614,91.308C153.436,810.255,151.114,839.331,147.446,857.062Z" fill="#431b72" stroke="#431b72" stroke-miterlimit="10" stroke-width="0.5" fill-rule="evenodd"/>
      </g>
      <g>
        <path d="M1207.49,144.025V569.066q0,26.19-101.507,44.93h-.121V188.112q5.358-.988,10.453-1.98s12.832-2.662,18.678-4.025l3.9-.9q14.429-3.476,25.825-7.146,3.514-1.137,6.732-2.283C1195.144,163.338,1207.12,154,1207.49,144.025Z" fill-rule="evenodd" fill="url(#j)"/>
        <path d="M1197.518,201.592q0,9.129.122,18.261a278.368,278.368,0,0,1-72.077,23.306q-.122-9.369-.122-18.5A281.409,281.409,0,0,0,1197.518,201.592Z" fill="#322d85" fill-rule="evenodd"/>
        <path d="M1197.518,375.18v18.74a156.142,156.142,0,0,1-53.694,22.825V398A162.017,162.017,0,0,0,1197.518,375.18Z" fill="#3b359b" fill-rule="evenodd"/>
        <path d="M1197.64,524.5q-.122,9.609-.122,19.223a200.372,200.372,0,0,1-22.46,12.013V536.51A193.514,193.514,0,0,0,1197.64,524.5Z" fill="#2180c2" fill-rule="evenodd"/>
        <path d="M1197.518,172.643v18.138a286.674,286.674,0,0,1-53.816,18.981q.121-9.369-.121-18.14A306.363,306.363,0,0,0,1197.518,172.643Z" fill="#3b359b" fill-rule="evenodd"/>
        <path d="M1146.465,268.023V249.285a241.634,241.634,0,0,0,51.053-18.861v18.261A226.785,226.785,0,0,1,1146.465,268.023Z" fill="#2180c2" fill-rule="evenodd"/>
        <path d="M1136.736,300.82q0-9.488.117-19.1a238.689,238.689,0,0,0,60.787-22.464q-.122,9.13-.122,18.621A228.589,228.589,0,0,1,1136.736,300.82Z" fill="#2180c2" fill-rule="evenodd"/>
        <path d="M1138.055,330.371v-19.1a218.032,218.032,0,0,0,59.463-22.944v18.619A207.605,207.605,0,0,1,1138.055,330.371Z" fill="#3b359b" fill-rule="evenodd"/>
        <path d="M1202.625,144.674v.48a.544.544,0,0,0,0,.18,1.931,1.931,0,0,1-.06.36,11.669,11.669,0,0,1-.465,2.136c-5.07,8.04-14.173,14.6-27.333,19.452-1.08.4-3.3,1.2-3.3,1.2s-5.085,1.638-6.745,2.208c-21.14,7.24-55.309,13.643-68.288,15.668,0,12.88.051,292.673.051,292.673l-.03,49.564Q990.165,509.86,841.1,509.843q-91.44,0-166.86,7.03c.17-1.79-148.43,24.52-148.6,24.56V117.023a511.019,511.019,0,0,1,56.921-13.346c58.76-10.53,127.454-16.5,205.844-18.386,17.01-.39,34.615-.481,52.555-.481,100.59,0,186.778,6.49,258.058,19.31,19.33,3.32,35.856,7.1,49.766,10.7,32.14,8.3,50.055,17.33,53.435,27.09,0,0,.321,1.6.411,2.353Z" fill-rule="evenodd" fill="url(#k)"/>
        <polygon points="1096.371 587.509 1096.371 528.585 1096.371 479.029 1096.371 473.447 1096.371 434.162 1096.371 428.517 1096.371 422.932 1096.371 383.712 1096.371 378.243 1096.371 372.597 1096.371 333.375 1096.371 328.691 1096.371 323.223 1096.371 284.003 1096.371 278.416 1096.371 272.83 1096.371 233.488 1096.371 228.021 1096.371 222.497 1096.371 186.293 1105.862 189.541 1105.862 613.996 1099.316 611.775 1096.492 610.811 1096.371 610.754 1096.371 587.509" fill-rule="evenodd" fill="url(#l)"/>
        <path d="M1096.371,233.488V272.83q-5.322-.987-10.631-1.8-3.411-.513-6.788-.96.121-19.7.243-39.4Q1087.757,231.857,1096.371,233.488Z" fill="#bfaedd" fill-rule="evenodd"/>
        <path d="M1164.666,157.085q.054,6.738.056,13.455-14.733,4.8-35.195,9.31c-.449-.123-.886-.243-1.323-.36q.48-19.464.122-39.283a295.1,295.1,0,0,1,36.279,12.974Q1164.629,155.143,1164.666,157.085Z" fill="#bfaedd" fill-rule="evenodd"/>
        <path d="M1096.371,434.164v39.281q-5.886-1.059-11.833-1.982-3.391-.54-6.788-1.02.121-19.942.243-39.4Q1087.259,432.4,1096.371,434.164Z" fill="#bfaedd" fill-rule="evenodd"/>
        <polygon points="819.715 452.184 819.715 494.829 809.864 495.069 809.864 452.423 819.715 452.184" fill="#bfaedd" fill-rule="evenodd"/>
        <polygon points="771.663 434.645 771.663 495.31 763.253 495.67 763.253 435.003 771.663 434.645" fill="#8667bf" fill-rule="evenodd"/>
        <path d="M1068.681,185.136q-.08,16.422-.179,33.275a315.57,315.57,0,0,0-33.394-1.742q-3.337,0-6.732.061V177.206a296.722,296.722,0,0,1,40.365,1.922Q1068.723,182.127,1068.681,185.136Z" fill="#bfaedd" fill-rule="evenodd"/>
        <path d="M1035.108,367.312q-3.344.039-6.732.18V327.849a290.931,290.931,0,0,1,39.524,1.2q-.018,3.063-.057,6.126-.084,16.639-.182,33.276A278.775,278.775,0,0,0,1035.108,367.312Z" fill="#bfaedd" fill-rule="evenodd"/>
        <path d="M1132.529,390.8v-18.74a204.038,204.038,0,0,0,64.989-25.828v18.5A198.058,198.058,0,0,1,1132.529,390.8Z" fill="#2180c2" fill-rule="evenodd"/>
        <path d="M1157.877,354.158q.122-9.731-.121-18.981a182.3,182.3,0,0,0,39.762-17.9V335.9A176.768,176.768,0,0,1,1157.877,354.158Z" fill="#3b359b" fill-rule="evenodd"/>
        <path d="M1156.915,512.129a110.2,110.2,0,0,0,40.6-17.42v18.979a111.636,111.636,0,0,1-40.6,17.3Z" fill="#322d85" fill-rule="evenodd"/>
        <path d="M1197.64,464.676q.121,9.609-.122,18.981a135.189,135.189,0,0,1-56.7,21.5v-18.5A139.089,139.089,0,0,0,1197.64,464.676Z" fill="#2180c2" fill-rule="evenodd"/>
        <path d="M1197.518,404.732v18.859a166.971,166.971,0,0,1-62.226,24.627V429.959A169,169,0,0,0,1197.518,404.732Z" fill="#322d85" fill-rule="evenodd"/>
        <path d="M1197.518,434.645v18.86a172.143,172.143,0,0,1-33.633,16.578V451.341A177.617,177.617,0,0,0,1197.518,434.645Z" fill="#322d85" fill-rule="evenodd"/>
        <path d="M1138.055,593.453q0-9.486.121-18.62a120.909,120.909,0,0,0,59.464-20.658q-.122,9.363-.122,18.736A119.918,119.918,0,0,1,1138.055,593.453Z" fill="#3b359b" fill-rule="evenodd"/>
        <g>
          <path d="M573.33,274.873V296.5c-2.383.54-4.871,1.06-7.448,1.561V152.34a3.457,3.457,0,0,1,1.08-2.523,3.5,3.5,0,0,1,5.28,0,3.465,3.465,0,0,1,1.088,2.523V274.873Z" fill="#bfaedd" fill-rule="evenodd"/>
          <path d="M766.619,143.63q-3.756-1.587-7.452-2.883v-6.185a3.457,3.457,0,0,1,1.08-2.522,3.509,3.509,0,0,1,5.288,0,3.461,3.461,0,0,1,1.084,2.522Z" fill="#bfaedd" fill-rule="evenodd"/>
          <path d="M884.223,167.657a49.206,49.206,0,0,0-7.448-2.463v-28.47a3.457,3.457,0,0,1,1.08-2.522,3.508,3.508,0,0,1,5.287,0,3.458,3.458,0,0,1,1.081,2.522Z" fill="#bfaedd" fill-rule="evenodd"/>
          <path d="M990.058,217.569V145.614a3.464,3.464,0,0,1,1.08-2.524,3.5,3.5,0,0,1,5.284,0,3.472,3.472,0,0,1,1.084,2.524V296.977a3.61,3.61,0,0,1-1.084,2.643,3.772,3.772,0,0,1-5.284,0,3.6,3.6,0,0,1-1.08-2.643V217.569Z" fill="#bfaedd" fill-rule="evenodd"/>
          <path d="M876.775,285.383q1.5-1.655,3-3.423,1.983-2.293,4.446-5.465v11.592a3.591,3.591,0,0,1-1.081,2.641,3.77,3.77,0,0,1-5.287,0,3.59,3.59,0,0,1-1.08-2.641Z" fill="#bfaedd" fill-rule="evenodd"/>
          <path d="M858.214,300.941q.571-.118,1.141-.241c1.453-.969,2.888-2.012,4.32-3.127q63.284,2.382,130.465,9.133a3.753,3.753,0,0,1,2.524,1.323,4.054,4.054,0,0,1,.842,2.763,3.746,3.746,0,0,1-1.323,2.522,4.043,4.043,0,0,1-2.763.841q-74.942-7.557-144.995-9.67,4.635-1.376,9.729-2.824C858.182,301.416,858.2,301.176,858.214,300.941Z" fill="#bfaedd" fill-rule="evenodd"/>
          <path d="M766.619,151.738V222.2a65.338,65.338,0,0,1-7.452-6.727V148.615c2.274.84,4.551,1.78,6.849,2.824.2.071.4.152.6.241Z" fill="#bfaedd" fill-rule="evenodd"/>
          <path d="M876.775,235.83v-7.148q3.684,2.336,7.448,4.565v2.583q-3.393,2.9-7.448,6.127Z" fill="#bfaedd" fill-rule="evenodd"/>
          <path d="M884.223,186.517v38.142q-3.769-2.3-7.448-4.745V172.943a49.909,49.909,0,0,1,7.448,2.821v10.753Z" fill="#bfaedd" fill-rule="evenodd"/>
          <path d="M766.619,240.094v45.83a3.607,3.607,0,0,1-1.084,2.644,3.776,3.776,0,0,1-5.288,0,3.6,3.6,0,0,1-1.08-2.644V225.739a53.631,53.631,0,0,0,5.769,4.325h-.121c.594.4,1.2.784,1.8,1.14Z" fill="#bfaedd" fill-rule="evenodd"/>
        </g>
        <path d="M912.451,404.914a32.871,32.871,0,0,0,4.806,10.51,2.5,2.5,0,0,0,.243.3,31.88,31.88,0,0,0,14.652,11.952q8.654,3.123,15.98-.119a18.5,18.5,0,0,0,10.57-12.013,28.154,28.154,0,0,0-.538-17.059c-.089-.316-.19-.635-.3-.961a33.069,33.069,0,0,0-11.772-15.618q-7.087-5.341-14.414-5.586a22.086,22.086,0,0,0-2.524.06l-3.123-14.055a33.743,33.743,0,0,1,18.139,3.724l-.6,2.522a48.623,48.623,0,0,1,5.768,3.305,48.115,48.115,0,0,1,14.895,16.878q7.089,13.455,5.045,27.148-2.282,13.457-12.852,20.182-10.451,6.366-23.787,2.284t-22.7-16.58a46.585,46.585,0,0,1-8.289-18.979,45.784,45.784,0,0,1-.72-8.169l10.449,2.042A34.343,34.343,0,0,0,912.451,404.914Z" fill="#bfaedd" fill-rule="evenodd"/>
        <path d="M976.9,389.837a62.292,62.292,0,0,1,3.3,10.21l-2.161.241q3.6,16.818-2.88,30.632a31.771,31.771,0,0,1-20.664,17.9q-13.695,4.2-28.71-2.642-14.9-6.849-24.867-21.985a59.739,59.739,0,0,1-8.831-23.245,54.067,54.067,0,0,1-.538-8.109l9.369,1.8a45.784,45.784,0,0,0,.72,8.169,46.585,46.585,0,0,0,8.289,18.979q9.369,12.5,22.7,16.58t23.787-2.284q10.57-6.726,12.852-20.182,2.044-13.692-5.045-27.148a48.115,48.115,0,0,0-14.895-16.878,48.623,48.623,0,0,0-5.768-3.305l.6-2.522,2.164-9.369q17.895,8.649,27.748,27.148Q975.651,386.848,976.9,389.837Z" fill="#b563ff" fill-rule="evenodd"/>
        <polygon points="787.4 425.394 787.4 495.069 778.989 495.189 778.989 425.513 787.4 425.394" fill="#b563ff" fill-rule="evenodd"/>
        <polygon points="825.718 471.523 834.367 471.285 834.367 494.469 825.718 494.829 825.718 471.523" fill="#8667bf" fill-rule="evenodd"/>
        <polygon points="740.906 478.492 740.906 496.512 732.5 496.75 732.5 478.732 740.906 478.492" fill="#bfaedd" fill-rule="evenodd"/>
        <path d="M573.33,232.167v-3.546a2.872,2.872,0,0,1,.238-.36q6-9.609,26.546-1.08l-.117-.24q15.9,6.483,24.268,19.341c.8,1.278,1.566,2.6,2.278,3.964q.989,1.24,1.986,2.462c1.052,1.272,2.116,2.512,3.18,3.724.684.766,1.719,2.872,1.566,3.183a31.9,31.9,0,0,1-4.147,4.986q-2.955-3.16-5.886-6.608c-.9-1.088-1.808-2.189-2.7-3.3-.165-.32-.278-.56-.36-.72q-.576-1.126-1.2-2.223a40.063,40.063,0,0,0-10.631-11.772,48.269,48.269,0,0,0-11.113-6.066q-13.7-5.646-17.779-1.323l-.061.121a3.421,3.421,0,0,1-2.221,1.321,4.328,4.328,0,0,1-.6,0A6.935,6.935,0,0,1,573.33,232.167Z" fill="#3b359b" fill-rule="evenodd"/>
        <path d="M831.847,193.964q2.33-3.139,4.385-5.825,9.909-13.1,13.516-16.218,6.6-6.248,17.176-6.968a21.353,21.353,0,0,1,9.851.241,49.206,49.206,0,0,1,7.448,2.463q2.312.975,4.805,2.223,11.895,5.735,20.122,21.862-2.288,3.137-4.927,6.729a61.633,61.633,0,0,0-5.4-9.731q-5.685-8.426-13.034-12.253c-.526-.259-1.048-.5-1.561-.723a49.909,49.909,0,0,0-7.448-2.821,18.646,18.646,0,0,0-8.289-.66h-.6a20.5,20.5,0,0,0-12.31,4.442c-.263.237-.526.477-.785.722l-.117.119q-3.3,2.816-12.735,15.2-2.027,2.688-4.385,5.827c-.134.2-.271.4-.417.6Q818.627,224.3,808.42,231.506v.24a28.593,28.593,0,0,1-3.6,2.221,34.26,34.26,0,0,1-16.1,3.666,41.111,41.111,0,0,1-21.2-5.887q-.455-.257-.9-.542c-.607-.356-1.21-.736-1.8-1.14h.121a53.631,53.631,0,0,1-5.769-4.325,82.009,82.009,0,0,1-9.247-9.49v-.12a71.767,71.767,0,0,0-9.01-9.191q-.145-1.641-.364-3.3c-.239-1.12-.441-2.322-.6-3.6q-.247-1.667-.6-3.3,7.578,4.374,16.218,14.717,1.819,2.133,3.6,4.023a65.338,65.338,0,0,0,7.452,6.727q1.207.947,2.4,1.742a34.6,34.6,0,0,0,19.7,6.246,25.512,25.512,0,0,0,15.259-4.563h.117q8.5-6.242,23.549-26.069,1.754-2.308,3.6-4.806C831.442,194.48,831.645,194.219,831.847,193.964Z" fill="#3b359b" fill-rule="evenodd"/>
        <path d="M928.912,190.6a19.782,19.782,0,0,0-2.524-1.5h-.239l-.121-.241-1.8-.72-.481-.241a.7.7,0,0,0-.481-.119,5.437,5.437,0,0,1,.72-2.882c.109-.2.23-.4.36-.6a22.068,22.068,0,0,0,6.124,2.041,16.259,16.259,0,0,0,19.584-16.578,22.816,22.816,0,0,0-5.764-15.017,22.3,22.3,0,0,0-13.82-8.286,15.9,15.9,0,0,0-13.811,3.48,16.371,16.371,0,0,0-5.768,13.1,22.813,22.813,0,0,0,5.768,15.017c.474.564.955,1.1,1.441,1.622q-1.166,1.566-2.521,3.425c-.74-.761-1.464-1.562-2.164-2.4a28.049,28.049,0,0,1-6.966-18.5q0-10.21,6.966-16.216,7.088-5.767,17.181-4.086a27.483,27.483,0,0,1,16.938,10.091,27.962,27.962,0,0,1,7.205,18.621q0,10.211-7.205,16.1-6.972,5.886-16.938,4.2C930.032,190.809,929.47,190.708,928.912,190.6Z" fill="#bfaedd" fill-rule="evenodd"/>
        <path d="M931.614,220.033q1.468-1.086,2.941-2.1a12.738,12.738,0,0,0,5.106-6.547q15.377-7.533,37.784-56.642a3.233,3.233,0,0,1,2.038-2.042,3.341,3.341,0,0,1,2.885.121,3.305,3.305,0,0,1,1.8,2.162,3.352,3.352,0,0,1,0,2.763l-1.262,2.763Q965.828,197.37,951.676,211.5q-9.315,9.221-17.359,8.71Q932.939,220.174,931.614,220.033Z" fill="#3b359b" fill-rule="evenodd"/>
        <path d="M1096.371,383.71v39.222q-5.729-1.08-11.473-1.982-3.4-.5-6.788-.963.122-19.583.243-39.281Q1087.4,382,1096.371,383.71Z" fill="#bfaedd" fill-rule="evenodd"/>
        <path d="M1096.371,186.337V222.5q-5.218-1-10.389-1.8-3.421-.508-6.787-.96.114-19.944.238-39.283,12.61,1.674,25.349,4.383-2.859.519-5.887,1.024C1098.091,186.015,1097.253,186.177,1096.371,186.337Z" fill="#bfaedd" fill-rule="evenodd"/>
        <path d="M922.484,174.023c-.138-.182-.279-.365-.421-.54a13.874,13.874,0,0,1-3.483-9.25,10.222,10.222,0,0,1,3.483-8.168,10.47,10.47,0,0,1,8.649-2.043,14.321,14.321,0,0,1,8.528,5.166,14.043,14.043,0,0,1,3.6,9.369,9.726,9.726,0,0,1-3.6,8.049,9.445,9.445,0,0,1-8.528,2.162,11.361,11.361,0,0,1-2.221-.6c.166-.226.348-.467.538-.72q4.845-6.108,5.372-10.56a.449.449,0,0,0-.329-.48q-3.9-1.029-7.563,2.872Q924.961,170.993,922.484,174.023Z" fill="#bfaedd" fill-rule="evenodd"/>
        <path d="M996.122,382.81a87.6,87.6,0,0,1,7.27,35.255q0,30.035-19.94,46.971-20.188,17.3-48.294,10.931-28.471-6.247-48.533-32.312A102.539,102.539,0,0,1,878.4,431.28a84.588,84.588,0,0,1-11.473-43.246l12.133,2.282q0,3.726.238,7.448c.028.236.049.477.065.722a59.471,59.471,0,0,0,1.258,6.367,73.546,73.546,0,0,0,6.849,19.22,68.636,68.636,0,0,0,8.046,12.251q14.418,18.743,27.752,23.427,13.331,4.563,24.507,4.327a43.9,43.9,0,0,0,20.542-5.407q11.651-6.366,18.14-20.063a56.859,56.859,0,0,0,5.105-29.851,76.877,76.877,0,0,0-1.384-9.07l-.6.119a69.659,69.659,0,0,0-4.025-12.433,75.627,75.627,0,0,0-5.284-10.332,86.611,86.611,0,0,0-5.469-7.988l8.653-7.447A99.888,99.888,0,0,1,996.122,382.81Z" fill="#322d85" fill-rule="evenodd"/>
        <polygon points="803.497 436.925 803.497 495.069 795.325 495.189 795.325 437.049 803.497 436.925" fill="#b3a3cf" fill-rule="evenodd"/>
        <polygon points="757.367 495.911 748.956 496.39 748.956 450.621 757.367 450.382 757.367 495.911" fill="#b3a3cf" fill-rule="evenodd"/>
        <path d="M750.757,382.088a10.847,10.847,0,0,1,1.084-1.263l.061-.058a6.577,6.577,0,0,0,.056.78Zm-1.2,4.144,3.722-1.8a9.507,9.507,0,0,0,.841.961,8.145,8.145,0,0,0,9.491,1.323l1.562,1.68a7.05,7.05,0,0,1-1.441,2.883l9.73,10.453a7.49,7.49,0,0,0-.239,1.922,7.8,7.8,0,0,0,7.929,7.926A7.659,7.659,0,0,0,786.8,409.3a10.548,10.548,0,0,0,1.02-1.258l18.564-.783a7.422,7.422,0,0,1,1.921-3.483h.118a8.31,8.31,0,0,0,2.281,4.565,7.686,7.686,0,0,0,5.648,2.284,7.527,7.527,0,0,0,5.526-2.284l.06.059a6.66,6.66,0,0,1,.061.9,7.78,7.78,0,0,1-.6,3l54.775,56.222-2.282,2.163-54.3-55.74a7.539,7.539,0,0,1-5.526,2.282,7.689,7.689,0,0,1-5.647-2.282,8.31,8.31,0,0,1-2.282-4.567l-19.341.72a8.42,8.42,0,0,1-2.281,4.806,7.666,7.666,0,0,1-5.648,2.284,7.8,7.8,0,0,1-7.925-7.929,7.5,7.5,0,0,1,1.679-4.926L761.331,393.32a8.146,8.146,0,0,1-9.49-1.321,8.693,8.693,0,0,1-.842-.961l-9.251,4.444a7.715,7.715,0,0,0,.962-3.843v-.121l6.967-3.364a12.636,12.636,0,0,1-.118-1.8Zm-21.982,18.32a23.185,23.185,0,0,0,1.678-3.3,19.669,19.669,0,0,0,1.2-2.885,7.837,7.837,0,0,0,4.325,1.2,7.521,7.521,0,0,0,5.525-2.282l.061-.061a8.3,8.3,0,0,1,.061,1.022,8,8,0,0,1-7.929,7.929A7.739,7.739,0,0,1,727.577,404.552ZM601.68,383.53l-.482-.182.482-.3C601.672,383.212,601.672,383.374,601.68,383.53Z" fill="#651dc4" fill-rule="evenodd" opacity="0.44"/>
        <path d="M749.559,386.232l-7.091,3.364a8.392,8.392,0,0,1,.242,1.922v.121a7.667,7.667,0,0,1-.967,3.843,7.837,7.837,0,0,1-1.379,1.741l-.057.061a7.529,7.529,0,0,1-5.525,2.282,7.837,7.837,0,0,1-4.325-1.2,35.224,35.224,0,0,0,1.141-13.993,7.56,7.56,0,0,1,3.184-.661,7.342,7.342,0,0,1,5.525,2.4,3.113,3.113,0,0,1,.721.72l9.729-4.745,1.2-.541a6.019,6.019,0,0,1-.052-.78,8.092,8.092,0,0,1-.061-1.022,8,8,0,0,1,7.929-7.929,8.214,8.214,0,0,1,7.925,7.929,7.522,7.522,0,0,1-1.679,4.925l11.169,12.013a8.289,8.289,0,0,1,3.969-.96A7.649,7.649,0,0,1,786.793,398a7.87,7.87,0,0,1,1.926,3.485l19.943-.841a7.44,7.44,0,0,1,2.039-3.605,7.689,7.689,0,0,1,5.648-2.283,8,8,0,0,1,7.929,7.929,7.809,7.809,0,0,1-.6,3l54.779,56.221-2.286,2.165L821.935,408.4l-.06-.059a7.527,7.527,0,0,1-5.526,2.284,7.686,7.686,0,0,1-5.648-2.284,8.31,8.31,0,0,1-2.281-4.565H808.3l-19.223.72a8.527,8.527,0,0,1-1.266,3.546,9.816,9.816,0,0,1-1.02,1.258,7.643,7.643,0,0,1-5.639,2.283,7.8,7.8,0,0,1-7.929-7.926,7.49,7.49,0,0,1,.239-1.922,6.861,6.861,0,0,1,1.436-3l-9.725-10.332-1.562-1.68a8.145,8.145,0,0,1-9.491-1.323,9.032,9.032,0,0,1-.841-.961Z" fill="#8667bf" fill-rule="evenodd"/>
        <polygon points="1096.492 610.811 1099.316 611.773 1096.492 610.871 1096.492 610.811" fill="#dbdfff" fill-rule="evenodd"/>
        <path d="M923.863,226.459q3.337-3.053,6.671-5.645,1.554.463,3.184.841,7.761,1.329,17.958-10.152,14.149-14.131,31.234-50.994a2.516,2.516,0,0,1,.3-.119,3.325,3.325,0,0,1,2.885.119,3.718,3.718,0,0,1,1.921,2.043,4.432,4.432,0,0,1-.238,2.882q-33.042,69.317-55.625,63.547l-.117-.119A68.252,68.252,0,0,1,923.863,226.459ZM903.2,250.487q2.19-2.85,4.085-5.346,3.52,1.581,7.088,3.062,37.689,16.317,72.5-32.314a4.23,4.23,0,0,1,3.184,1.68v3.846a3.631,3.631,0,0,1-.36.481q-40.25,49.369-76.883,33.035Q907.985,252.81,903.2,250.487ZM759.167,156.425q-24.022-10.437-44.268-5.647a50.421,50.421,0,0,0-9.548-3.3q2.088-.7,4.325-1.382,23.434-7.1,49.491,2.522Zm0,78.2a82.1,82.1,0,0,1-9.247-9.491v-.119a79.178,79.178,0,0,0-8.35-8.71q-.146-4.518-.66-9.371a71.767,71.767,0,0,1,9.01,9.191v.12a82.009,82.009,0,0,0,9.247,9.49Zm7.452,5.465V231.2q.442.285.9.542c.5.387,1,.747,1.5,1.081a34.6,34.6,0,0,0,19.7,6.246,25.505,25.505,0,0,0,15.259-4.564h.117c.231-.167.47-.347.72-.542a28.593,28.593,0,0,0,3.6-2.221v-.24q10.212-7.209,28.714-32.315c.146-.2.283-.4.417-.6q4.246,3.5,8.354,7.088a249.1,249.1,0,0,0,30.87,23v7.148a312.412,312.412,0,0,1-30.15-21.624q-4.322-3.514-8.832-7.027c-.222.305-.44.6-.659.9Q818.627,233.188,808.42,240.4v.119q-8.167,6.008-19.7,6.007A41.3,41.3,0,0,1,766.619,240.094Zm61.025-40.543Q803.5,181.7,774.184,164.233q-3.823-2.293-7.565-4.264v-8.231q5.619,2.678,11.412,6.129v-.121q19.758,11.778,37.177,23.666,8.544,6.119,16.639,12.552c-.2.255-.4.516-.6.781Q829.4,197.243,827.644,199.551Zm-208.666,52.2q-1.881,1.771-3.9,3.424a43.926,43.926,0,0,0-17.84-12.374q-13.7-5.645-17.779-1.322a3.365,3.365,0,0,1-2.282,1.443,3.89,3.89,0,0,1-2.763-.722,3.054,3.054,0,0,1-1.084-1.139v-3.546a3.33,3.33,0,0,1,.242-.36,10.185,10.185,0,0,1,3-3.123,4.328,4.328,0,0,0,.6,0,3.412,3.412,0,0,0,2.221-1.321q7.215-2.288,20.72,3.244L600,235.83a61.377,61.377,0,0,1,8.35,4.145A40.008,40.008,0,0,1,618.978,251.747Zm-30.094,26.129q20.645-7.4,34.358-19.883,2.931,3.447,5.886,6.608-1.833,1.872-4.325,4.084c-.671-.813-1.355-1.632-2.043-2.464q-18.137,16.609-49.434,24.089V282.8A139.565,139.565,0,0,0,588.884,277.876Zm39.645-25.168a78.213,78.213,0,0,0,12.731-19.1q.57,1.451,1.2,2.943c-.266.633-.521,1.273-.776,1.924a74.314,74.314,0,0,1-9.976,17.958C630.645,255.22,629.581,253.98,628.529,252.708Zm255.694-66.191v-8.591q2.585,1.391,5.4,3.245a53.5,53.5,0,0,1,9.191,7.569,61.633,61.633,0,0,1,5.4,9.731c-.053.069-.113.15-.178.239q-1.687,2.649-3.006,5.226a45.779,45.779,0,0,0-15.376-16.519Q884.934,186.937,884.223,186.517Zm0,49.313v-2.583q.9.522,1.8,1.022Q885.143,235.046,884.223,235.83Zm-38.08-39.584q-2.069-1.766-4.207-3.483,9.436-12.382,12.735-15.2l.117-.119c.259-.245.522-.485.785-.722a30.036,30.036,0,0,1,11.351-2.882q4.157-1.083,9.851.781v7.928q-4.946-1.98-8.289-1.381h-.6q-8.168.48-13.1,5.166l-.117.119Q852.165,188.589,846.143,196.246Z" fill="#651dc4" fill-rule="evenodd" opacity="0.44"/>
        <path d="M917.5,415.725a2.5,2.5,0,0,1-.243-.3,32.871,32.871,0,0,1-4.806-10.51l3.487.659A32.6,32.6,0,0,0,917.5,415.725Zm14.175-39.4q7.331.246,14.414,5.586a33.069,33.069,0,0,1,11.772,15.618c.113.326.214.645.3.961a31.764,31.764,0,0,0-7.508-7.689q-8.41-6.246-16.938-5.526Zm50.211,23.666-1.682.06a62.292,62.292,0,0,0-3.3-10.21q.831,1.4,1.622,2.882Q980.442,396.4,981.886,399.987Zm-1.618-22.946a75.627,75.627,0,0,1,5.284,10.332,83.967,83.967,0,0,0-6.307-9.43ZM878.4,431.28a102.539,102.539,0,0,0,8.228,12.375q20.061,26.069,48.533,32.312,28.107,6.369,48.294-10.931,19.939-16.938,19.94-46.971a87.6,87.6,0,0,0-7.27-35.255,88.088,88.088,0,0,1,11.712,44.147q0,30.032-19.94,46.969-20.177,17.3-48.29,10.931-28.35-6.248-48.533-32.315A98.507,98.507,0,0,1,878.4,431.28Z" fill="#651dc4" fill-rule="evenodd" opacity="0.44"/>
        <path d="M1069.1,134.861q.163,16.472-.239,33.217-16.128-1.715-33.7-1.924-3.363-.018-6.789,0,.243-19.94,0-39.521a361.306,361.306,0,0,1,40.6,2.162Q1069.04,131.815,1069.1,134.861Z" fill="#bfaedd" fill-rule="evenodd"/>
        <path d="M1117.933,142.61q.237,17.1-.178,34-15.923-3.833-31.356-6.307-3.434-.54-6.844-1.02.478-19.821.117-39.163,18.744,2.643,38.2,7.328Q1117.921,140.038,1117.933,142.61Z" fill="#bfaedd" fill-rule="evenodd"/>
        <path d="M1085.137,370.734c-2.265-.331-4.531-.651-6.784-.961q.121-19.821.239-39.521,8.877,1.4,17.779,3.123V372.6Q1090.764,371.606,1085.137,370.734Z" fill="#bfaedd" fill-rule="evenodd"/>
        <path d="M1067.6,385.571q-.078,16.653-.182,33.217a237.855,237.855,0,0,0-32.31-1.022q-3.35.1-6.732.3v-39.4a220.734,220.734,0,0,1,39.285.842Q1067.643,382.541,1067.6,385.571Z" fill="#bfaedd" fill-rule="evenodd"/>
        <path d="M1085.5,321.3q-3.4-.554-6.788-1.022.237-19.821.117-39.161,8.763,1.213,17.541,2.884v39.22Q1090.934,322.158,1085.5,321.3Z" fill="#bfaedd" fill-rule="evenodd"/>
        <path d="M1068.142,285.864q.079,16.305-.121,33.214a290.588,290.588,0,0,0-32.856-1.379q-3.369.057-6.789.178.243-19.94,0-39.4a257.993,257.993,0,0,1,39.766,1.323Q1068.16,282.816,1068.142,285.864Z" fill="#bfaedd" fill-rule="evenodd"/>
        <path d="M1068.442,235.47q-.08,16.6-.182,33.275a287.014,287.014,0,0,0-33.152-1.561q-3.344.021-6.732.119V227.782a272.724,272.724,0,0,1,40.126,1.681C1068.49,231.467,1068.466,233.47,1068.442,235.47Z" fill="#bfaedd" fill-rule="evenodd"/>
        <path d="M1067.24,435.966q-.06,16.612-.06,33.156a206.25,206.25,0,0,0-32.072-.9q-3.357.154-6.732.421v-39.4a216.394,216.394,0,0,1,38.925.6Q1067.283,432.895,1067.24,435.966Z" fill="#bfaedd" fill-rule="evenodd"/>
        <path d="M980.2,400.047l1.682-.06,7.691-.181.6-.119a76.877,76.877,0,0,1,1.384,9.07,56.859,56.859,0,0,1-5.105,29.851q-6.487,13.695-18.14,20.063a43.9,43.9,0,0,1-20.542,5.407q-11.172.237-24.507-4.327-13.332-4.684-27.752-23.427a68.636,68.636,0,0,1-8.046-12.251,73.546,73.546,0,0,1-6.849-19.22,59.471,59.471,0,0,1-1.258-6.367c-.016-.245-.037-.486-.065-.722q-.237-3.725-.238-7.448l12.5,2.522a54.067,54.067,0,0,0,.538,8.109,59.739,59.739,0,0,0,8.831,23.245q9.969,15.137,24.867,21.985,15.012,6.844,28.71,2.642a31.771,31.771,0,0,0,20.664-17.9q6.48-13.815,2.88-30.632Z" fill="#453bd9" fill-rule="evenodd"/>
        <path d="M1069.1,134.861q3.325.288,6.606.662.364,19.46-.117,39.28a363.955,363.955,0,0,0-40.482-1.921q.036-3.358.057-6.728,17.573.21,33.7,1.924Q1069.27,151.334,1069.1,134.861Zm55.442,46.069q-2.627.577-5.348,1.141h-.06q-16.7-3.786-32.853-6.066.066-2.851.117-5.706,15.438,2.475,31.356,6.307.418-16.9.178-34,3.337.759,6.671,1.562Q1124.939,162.649,1124.543,180.93Zm-40,290.533q5.954.924,11.833,1.982v5.586q-5.91-1.016-11.893-1.862Q1084.5,474.3,1084.538,471.463Zm11.833-48.531v5.585q-5.759-1.011-11.533-1.8.018-2.867.06-5.764Q1090.645,421.853,1096.371,422.932Zm-61.263-55.62a278.775,278.775,0,0,1,32.553,1.141q.1-16.636.182-33.276,3.423.261,6.784.6-.121,19.7-.238,39.4a288.406,288.406,0,0,0-39.281-.961Zm32.492,18.259q3.423.282,6.789.661-.121,19.7-.239,39.281a243.2,243.2,0,0,0-39.042-.72v-7.027a237.855,237.855,0,0,1,32.31,1.022Q1067.522,402.224,1067.6,385.571Zm17.537-14.837q5.631.872,11.234,1.863v5.646q-5.637-.969-11.29-1.74Q1085.1,373.628,1085.137,370.734Zm-16.995-84.87q3.411.279,6.728.661.115,19.221-.122,39.283a292.787,292.787,0,0,0-39.64-1.2q.036-3.456.057-6.908a290.588,290.588,0,0,1,32.856,1.379Q1068.221,302.17,1068.142,285.864ZM1085.5,321.3q5.432.855,10.87,1.921v5.468q-5.474-.927-10.93-1.684Q1085.471,324.144,1085.5,321.3Zm10.87-48.472v5.586q-5.352-.915-10.692-1.622.018-2.881.061-5.767Q1091.05,271.843,1096.371,272.83Zm75.022-104.572q-3.173,1.15-6.671,2.282,0-6.717-.056-13.455,3.35,1.383,6.666,2.823Q1171.382,164.1,1171.393,168.258Zm-102.712,16.878q3.439.318,6.787.722-.12,19.338-.242,39.28a322.539,322.539,0,0,0-40.118-1.681v-6.788a315.57,315.57,0,0,1,33.394,1.742Q1068.6,201.56,1068.681,185.136Zm-.239,50.334q3.435.319,6.784.721-.116,19.581-.239,39.282a293.931,293.931,0,0,0-39.879-1.442v-6.847a287.014,287.014,0,0,1,33.152,1.561Q1068.362,252.071,1068.442,235.47Zm-1.2,200.5q3.429.231,6.784.6-.114,19.7-.117,39.281a208.868,208.868,0,0,0-38.8-.481V468.22a206.25,206.25,0,0,1,32.072.9Q1067.18,452.576,1067.24,435.966Z" fill="#651dc4" fill-rule="evenodd" opacity="0.44"/>
        <path d="M637.656,223.457q1.534,4.873,3.6,10.15a78.213,78.213,0,0,1-12.731,19.1q-1-1.219-1.986-2.462-1.068-2.048-2.278-3.964a72.592,72.592,0,0,0,11.89-19.1C636.664,225.933,637.17,224.691,637.656,223.457Zm121.511-82.71q3.7,1.3,7.452,2.883a139.879,139.879,0,0,1,15.012,7.508,441.277,441.277,0,0,1,54.6,37q-2.058,2.685-4.385,5.825-8.1-6.433-16.639-12.552-17.664-12.614-37.3-23.907-5.7-3.282-11.29-5.825c-.2-.089-.4-.17-.6-.241-2.3-1.044-4.575-1.984-6.849-2.824q-26.057-9.623-49.491-2.522-2.234.683-4.325,1.382a61.157,61.157,0,0,0-16.1-1.382h-.121a129.641,129.641,0,0,1,18.261-7.087Q731.94,131.394,759.167,140.747ZM907.289,245.141q2.513-3.3,4.564-5.947,2.621,1.162,5.283,2.281,34.479,13.7,66.793-34.355a4.022,4.022,0,0,1,5.167-.963,4.678,4.678,0,0,1,.962.9v4.264q-1.578,2.343-3.184,4.566-34.806,48.631-72.5,32.314Q910.809,246.723,907.289,245.141ZM623.242,257.993q-13.714,12.482-34.358,19.883a157.237,157.237,0,0,1-15.558,4.624v-7.627q25.529-6.418,41.748-19.7,2.021-1.653,3.9-3.424.625,1.095,1.2,2.223c.082.16.2.4.36.72Q621.886,256.361,623.242,257.993Zm262.781-23.724q-.9-.5-1.8-1.022-3.763-2.229-7.448-4.565a249.1,249.1,0,0,1-30.87-23q-4.108-3.584-8.354-7.088,2.359-3.139,4.385-5.827,2.136,1.72,4.207,3.483,2.3,1.929,4.563,3.906a246.5,246.5,0,0,0,26.069,19.762q3.684,2.448,7.448,4.745,3.713,2.261,7.508,4.385Q889.2,231.51,886.023,234.269Z" fill="#b563ff" fill-rule="evenodd"/>
        <path d="M858.221,300.944c-.02.23-.03.48-.06.72q-5.1,1.455-9.73,2.82-10.05,3.03-17.96,5.77c-.96.35-1.91.69-2.82,1.02q-3.495,1.2-6.73,2.4-1.2.48-2.88,1.2c-.2.08-.4.16-.61.25q-6.15,2.16-14.17,4.68-5.535,1.92-12.26,3.96c-.47.08-.91.16-1.31.24q-8.175,2.4-17.78,5.05a182.737,182.737,0,0,0-20.91,7.93q-5.4,2.64-9.97,5.16a61.15,61.15,0,0,1-13.81,4.15h-.01c-.04.21-.08.43-.11.66q-.12,9.36.35,15.37.72,3.12,2.77,13.1a75.363,75.363,0,0,1,1.38,8.95,35.19,35.19,0,0,1-1.14,13.99,21.357,21.357,0,0,1-1.2,2.89,24.375,24.375,0,0,1-1.68,3.3,25.475,25.475,0,0,1-8.05,7.87q-4.215,2.88-13.22,6.12-3.96,6.975-12.01,18.62-7.7,12.975-11.29,19.11-3.765,6.915-6.31,25.76-.99,7.485-1.8,16.82c-.16,1.85-.33,3.75-.48,5.71-.53-1.83-1.794-1.634-3.224-2.534q-11.025-5.563-27.99-9.01-.585-.119-1.2-.24l-.49-.12h-.36a2.663,2.663,0,0,0-.96-.239,158.653,158.653,0,0,0-16.57-2.4q-8.175-.84-24.51-3.119a189.284,189.284,0,0,1-23.91-4.81c-1.332-.426-2.184-1.983-3.136-2.457q13.395-14.865,20.12-23.06a81.379,81.379,0,0,0,6.01-7.99c.79-1.39,1.52-2.79,2.16-4.21a42.512,42.512,0,0,0,3.84-22.22q-1.305-11.115-2.52-38.62v-.48l-.48.29-2.64,1.69q-11.055,7.2-21.15,14.29c-1.2.96-2.44,1.93-3.72,2.89q-4.8,3.36-9.37,6.84v.12a4.72,4.72,0,0,1-1.68.48,2.986,2.986,0,0,1-1.32-.72l-.13-.12a13.947,13.947,0,0,1-2.4-3,74.112,74.112,0,0,1-8.53-15.86l.01-.01c-.49-1.57-.93-3.05-1.33-4.43,2.61-.68,5.18-1.39,7.73-2.15l.02-.02q9.255-2.76,17.96-6.24a4.283,4.283,0,0,1,1.08-.36,17.616,17.616,0,0,0,1.68-.72l23.25-13.34,18.44-10.57a214.9,214.9,0,0,0,20.91-18.98,2.867,2.867,0,0,1,.83-1.08,1.358,1.358,0,0,0,.48-.48,10.1,10.1,0,0,1,1.57-1.68,165.053,165.053,0,0,0,28.53-44.87c.1-.23.21-.45.29-.66q2.49-6.1,4.09-11.47l1.56.06c1.07.25,2.13.53,3.19.84a57.579,57.579,0,0,1,5.58,1.98,58.45,58.45,0,0,1,17.54,11.47,29.119,29.119,0,0,1,6.12,7.69,29.965,29.965,0,0,1,8.11,3.18q2.43-.615,5.11-1.02a.346.346,0,0,0,.24-.12c1.04-.08,2.08-.2,3.13-.36q10.68-1.44,20.3-2.88,23.895-3.72,35.68-5.77,1.92-.36,3.72-.84a6.105,6.105,0,0,0,1.2-.12q6.375-1.2,12.38-2.52,7.68-1.68,15.01-3.61,4.92-1.08,9.73-2.52,6.96-1.785,13.58-3.96,1.275-.45,2.52-.9l.24-.06a12.181,12.181,0,0,1,5.82.78q4.875,2.04,7.99,8.83a34.505,34.505,0,0,1,2.77,7.08c-1.39.37-2.84.75-4.34,1.14,1.5-.38,2.95-.76,4.34-1.13A32.686,32.686,0,0,1,858.221,300.944Z" fill="#3b359b" fill-rule="evenodd"/>
        <path d="M740.878,206.7a34.677,34.677,0,0,1-1.14,7.98c-.06.209-.12.41-.18.6q-.84,3.615-1.92,6.97a86.328,86.328,0,0,1-4.44,10.33,53.983,53.983,0,0,1-6.85,9.61,32.58,32.58,0,0,1-8.41,6.85c-2.24,1.28-4.49,2.48-6.73,3.6q-5.52,4.576-11.29,8.771a99.909,99.909,0,0,1-9.19,6.31l-1.14.66a26.975,26.975,0,0,1-6.73,3.19q-.375.075-.72.18a20.471,20.471,0,0,0-4.56,1.2l-1.57-.061a120.353,120.353,0,0,1-4.09,11.471c-.08.21-.19.43-.29.66a165.312,165.312,0,0,1-28.54,44.869,11.494,11.494,0,0,0-1.56,1.681,1.286,1.286,0,0,1-.48.48,2.867,2.867,0,0,0-.83,1.08,213.743,213.743,0,0,1-20.91,18.98l-18.44,10.57-23.24,13.34a17.884,17.884,0,0,1-1.69.72,4.464,4.464,0,0,0-1.08.359q-8.7,3.466-17.96,6.241-3.825,1.155-7.75,2.17-4.635,1.2-9.43,2.22c-3.75.82-7.58,1.56-11.46,2.22-.8.149-1.6.29-2.41.419q-4.455.69-9.01,1.27l-.96.121q-10.7,1.44-22.46,2.16-13.35.6-19.22-5.65c-.57-.881-1.13-1.72-1.69-2.52a16.831,16.831,0,0,1-1.5-3.131,13.4,13.4,0,0,1,1.26-11.29,153.893,153.893,0,0,1-38.2-2.879,137.2,137.2,0,0,1-22.22-6.61,5.312,5.312,0,0,1-1.68-.721q-16.11-7.079-16.7-18.259-.24-4.44,4.08-10.09,6.975-8.415,21.03-7.691a53.583,53.583,0,0,1-22.71-27.75q-.6-1.558-1.08-3.119.72-13.1,10.93-13.7a32.16,32.16,0,0,1,16.7,3.609q10.335,5.882,16.94,9.25,27.15,13.216,71.35,10.691,3.12-.165,6.13-.36c3.07-.18,6.08-.38,9.01-.6a375.382,375.382,0,0,0,40.25-5.049q3.87-.75,7.44-1.56,21.645-4.935,32.2-12.61,12.255-8.94,19.28-15.2,2.49-2.2,4.32-4.08a31.9,31.9,0,0,0,4.15-4.99q.225-.465.48-.96a39.906,39.906,0,0,1,3.24-5.05,90.172,90.172,0,0,1,7.57-9.12c.3-.31.6-.61.89-.9h.01c.23-.21.46-.41.7-.61-.24.2-.47.4-.7.6a10.369,10.369,0,0,0-1.38-3.181q-.855-1.948-1.62-3.839c-.42-1-.83-1.98-1.21-2.95q-2.07-5.265-3.6-10.15a89.912,89.912,0,0,1-3.78-17.53q-2.055-19.83,8.65-34,6.96-11.3,20.18-18.5a94.158,94.158,0,0,1,9.13-3.85,61.435,61.435,0,0,1,17.29-3.48h.13a60.928,60.928,0,0,1,16.1,1.38,51.193,51.193,0,0,1,9.54,3.3c.43.2.85.4,1.27.61a20.126,20.126,0,0,0,1.92,1.2,62.809,62.809,0,0,1,8.89,6.49,56.741,56.741,0,0,1,6.37,7.68c.88,1.44,1.76,2.889,2.64,4.33a34.373,34.373,0,0,0,.36,11.77q.96,5.64,2.28,10.81c.27,1.01.51,2.04.72,3.06.24,1.1.44,2.2.6,3.31q.24,1.92.6,3.6C740.848,204.638,740.888,205.659,740.878,206.7Z" fill-rule="evenodd" fill="url(#m)"/>
        <path d="M708.409,677.277q-5.158,3.118-10.689,5.889a217.447,217.447,0,0,1-33.87,13.69l-14.63,4c-2.66.991-33.821,3.741-35.89,3.911-4.32.33-8.77.52-13.33.609q-36.285.107-73.52-13.22-5.535-1.92-11.65-4.32c5.92-19.7,7.09-57.989,8.14-76.089,0-2-1.87-37.49-1.79-39.571.56-19.939,4.46-43.59,9.5-52q4.1-8.879,15.74-18.129,15.135-12.5,18.38-16.1a39.1,39.1,0,0,1,5.04-4.93,5.506,5.506,0,0,1,2.23-1.38,3.622,3.622,0,0,1,3.42.9,187.532,187.532,0,0,0,23.9,4.81q16.35,2.28,24.509,3.12a158.581,158.581,0,0,1,16.581,2.4,2.777,2.777,0,0,1,.97.239h.36l.48.131c.41.07.81.15,1.2.23q16.965,3.45,27.99,9.01a6.792,6.792,0,0,1,2.939,4.09,14.808,14.808,0,0,1,.421,5.16q-.345,4.47-.6,7.149c-.19,2.46-.311,3.77-.36,3.911q-.12,8.16-1.68,24.74s-.16,8.97,0,12.26a71.079,71.079,0,0,0,2.28,12.129l.12.24q1.68,4.322,3.13,9.49Z" fill="#9c82cb" fill-rule="evenodd"/>
        <g>
          <path d="M629.909,284.6c-.336.277-.68.558-1.024.839q-10.376,8.468-20.3,15.138-7.615,5.124-14.956,9.189A143.709,143.709,0,0,1,569,320.761a103.637,103.637,0,0,1-13.936,3.6q-14.5,2.513-29.426,4.2-4.491.525-9.014.961-21.432,2.026-43.731,2.4-24.5,4.806-32.067,15.257-5.292,6.848-6.975,21.263a137.4,137.4,0,0,1-22.221-6.606,5.409,5.409,0,0,1-1.679-.723q-1.45-9.731.72-14.294,5.523-12.495,31.955-19.823l4.2-.958,61.992-5.648H507.5c2.132-.3,5.182-.72,9.13-1.26q3.635-.5,8.29-1.143c.238-.032.481-.072.724-.121q30.54-4.114,43.362-6.725a122.048,122.048,0,0,0,28.112-10.211q6.711-3.355,15.437-7.69,7.209-3.6,15.8-7.868C628.869,285.124,629.387,284.863,629.909,284.6Z" fill-rule="evenodd" fill="url(#n)"/>
          <path d="M450.075,864.943v.01c.61.45,1.2.91,1.76,1.38C451.275,865.853,450.685,865.393,450.075,864.943Zm253.59-577.7a58.45,58.45,0,0,0-17.54-11.47,57.579,57.579,0,0,0-5.58-1.98c-1.06-.31-2.12-.59-3.19-.84l-1.56-.06q-1.6,5.37-4.09,11.47c-.08.21-.19.43-.29.66,1.4.38,2.89.84,4.44,1.38q1.935.63,4.02,1.44,11.775,4.695,14.66,5.65,2.88.72,5.29,1.08a32.464,32.464,0,0,0,9.96.36A29.119,29.119,0,0,0,703.665,287.243Z" fill="#3b359b" fill-rule="evenodd"/>
          <g>
            <path d="M671.414,285.022q2.112.57,4.446,1.384,1.931.632,4.021,1.44,11.774,4.684,14.657,5.645,2.881.723,5.287,1.082a25.88,25.88,0,0,0-5.23,4.926,36.566,36.566,0,0,0-4.681,7.688,70.082,70.082,0,0,0-5.105,18.261q-.741,4.632-1.141,9.849c-.126,1.709-.223,3.471-.3,5.287q-.067,1.714-.118,3.483-.127,3.923-.186,8.169-.048,4.61,0,9.611.024,2.275.065,4.623.054,4.111.178,8.469a3.694,3.694,0,0,1,0,.421q.17,6.281.421,13.034.132,2.925.3,5.947.128,3.159.3,6.426-1.08,7.692-17.3,31.113-18.138,26.308-19.705,29.552-1.6,3.577-3.839,30.033c-.389-.081-.793-.16-1.2-.239l-.486-.121h-.36a2.688,2.688,0,0,0-.959-.241,158.455,158.455,0,0,0-16.578-2.4q-8.167-.84-24.507-3.123a187.4,187.4,0,0,1-23.908-4.8,3.605,3.605,0,0,0-3.422-.9q13.4-14.86,20.125-23.062a81.68,81.68,0,0,0,6-7.99c.8-1.388,1.521-2.788,2.16-4.2a42.56,42.56,0,0,0,3.847-22.224q-1.311-11.113-2.52-38.621c-.008-.156-.008-.318,0-.482q-.133-2.6-.239-5.346-.346-8-.785-15.014L619.1,352.115A215.319,215.319,0,0,0,640,333.134a2.929,2.929,0,0,1,.837-1.08,1.377,1.377,0,0,0,.482-.481,10.277,10.277,0,0,1,1.561-1.681A165.048,165.048,0,0,0,671.414,285.022Z" fill="#3b359b" fill-rule="evenodd"/>
            <path d="M698.863,321.362q.211-18.338,19.037-23.245,2.421-.615,5.11-1.021a.342.342,0,0,0,.234-.119c1.044-.081,2.083-.2,3.127-.36q10.692-1.445,20.3-2.885,23.9-3.723,35.68-5.765,1.918-.36,3.722-.841a6.2,6.2,0,0,0,1.2-.119q6.365-1.2,12.374-2.525,7.689-1.68,15.017-3.6,4.922-1.08,9.729-2.522,6.948-1.788,13.572-3.963,1.275-.445,2.525-.9a1.359,1.359,0,0,0,.238-.061,12.3,12.3,0,0,1,5.826.781q4.872,2.048,7.99,8.829a35.131,35.131,0,0,1,2.763,7.088q-9.128,2.442-21.381,5.287-2.645.613-5.408,1.26-14.472,3.253-32.8,7.027-11.815,2.418-25.227,5.047-25.165,4.957-43.966,8.167Q710.9,319.909,698.863,321.362Z" fill="#3b359b" fill-rule="evenodd"/>
            <path d="M718.086,152.58a55.6,55.6,0,0,0-2.047,11.412,30.305,30.305,0,0,0,.364,7.09q.837,4.442,1.8,8.888,1.08,5.524,2.165,11.171c.21,1.141.392,2.281.538,3.424a70.061,70.061,0,0,1,.663,7.749c0,.32,0,.639,0,.961q.018,1.074,0,2.162-.09,2.886-.3,5.886c-.053.836-.113,1.675-.182,2.523a50.052,50.052,0,0,1-2.282,11.533,41.669,41.669,0,0,1-6.97,12.613,35.281,35.281,0,0,1-9.851,8.771q-1.953,1.16-3.964,2.4c-1.481.924-2.977,1.887-4.507,2.882q-.4.234-.777.48-1.8.962-3.725,1.921a20.468,20.468,0,0,0-1.679-5.524c-.093-.182-.17-.36-.247-.542a88.764,88.764,0,0,0-9.365-14.715c-1.367-1.762-2.682-3.443-3.964-5.047.874-.88,1.881-1.8,3-2.761q20.784-21.384,16.1-43.247a55.036,55.036,0,0,0-7.391-17.96,59.083,59.083,0,0,0-3.965-5.465c-1.322-1.6-2.738-3.161-4.267-4.687-.288-.27-.567-.531-.842-.778-1.792-1.657-3.317-3.038-4.559-4.147a61.347,61.347,0,0,1,17.294-3.483h.125a61.157,61.157,0,0,1,16.1,1.382,50.421,50.421,0,0,1,9.548,3.3c.428.192.845.392,1.265.6A19.844,19.844,0,0,0,718.086,152.58Z" fill-rule="evenodd" fill="url(#o)"/>
            <path d="M645.459,243.579q5.607-4.994,14.179-5.105c1.036-.012,2.1.028,3.188.119a10.059,10.059,0,0,1,1.8.119q13.454.963,14.175,14.3c0,.72.045,1.562.126,2.522A62.7,62.7,0,0,1,675.8,272.89q-1.6,5.367-4.086,11.473c-.085.214-.19.435-.3.659a165.184,165.184,0,0,1-28.536,44.87,11.026,11.026,0,0,0-1.561,1.681,1.281,1.281,0,0,1-.482.481,3.02,3.02,0,0,0-.833,1.08A214.852,214.852,0,0,1,619.1,352.115l-18.439,10.573-23.245,13.333a16.95,16.95,0,0,1-1.682.721,4.373,4.373,0,0,0-1.081.36q-8.7,3.474-17.957,6.246-3.836,1.14-7.751,2.164-4.643,1.2-9.434,2.221-5.631,1.234-11.465,2.223c-.8.147-1.593.289-2.4.421q-4.455.685-9.014,1.262c-.319.04-.639.081-.962.119q-10.687,1.442-22.46,2.162-13.338.6-19.22-5.645a35.275,35.275,0,0,1,4.984-9.131q9.363-12.372,30.093-16.7,1.457-.333,7.565-.9c2.448-.257,5.445-.538,9.014-.841,1.245-.087,2.572-.188,3.964-.3q17.9-1.8,20.66-2.4,5.691-1.2,11.052-2.583a192.494,192.494,0,0,0,37.537-13.513q26.724-13.189,40.669-33.516a67.874,67.874,0,0,0,10.627-22.646q.436-1.821.784-3.664.807-3.95,1.259-7.927c.036-.438.081-.88.121-1.322a2.535,2.535,0,0,0,.057-.36,87.544,87.544,0,0,0,.359-10.452q-.351-10.09-6.48-10.57c-.162-.013-.32-.033-.481-.061q-6-.321-8.775,2.221a91.865,91.865,0,0,1,7.573-9.129C644.864,244.176,645.164,243.874,645.459,243.579Z" fill-rule="evenodd" fill="url(#p)"/>
            <path d="M857.315,290.133q-9.135,2.43-21.38,5.28-2.655.615-5.41,1.26-14.475,3.255-32.8,7.03-11.8,2.415-25.22,5.05-25.17,4.95-43.97,8.17-17.64,2.985-29.67,4.44a1.646,1.646,0,0,0-.09.21.494.494,0,0,0-.03.15,42.62,42.62,0,0,0,4.52,14.24q.57,1.02,1.2,1.95,7.365,10.77,22.74,8.38h.01a61.15,61.15,0,0,0,13.81-4.15q4.575-2.52,9.97-5.16a182.737,182.737,0,0,1,20.91-7.93q9.6-2.64,17.78-5.05c.4-.08.84-.16,1.31-.24q6.735-2.04,12.26-3.96,8.01-2.52,14.17-4.68c.21-.09.41-.17.61-.25q1.68-.72,2.88-1.2,3.24-1.2,6.73-2.4c.91-.33,1.86-.67,2.82-1.02q7.92-2.73,17.96-5.77,4.635-1.365,9.73-2.82c.03-.24.04-.49.06-.72A32.686,32.686,0,0,0,857.315,290.133Z" fill="#322d85" fill-rule="evenodd"/>
            <path d="M561.185,408.823q-7.68,5.64-14.89,11.29-7.92,6.6-15.38,13.33-2.46,2.175-5.28,4.39-4.14,3.285-9.01,6.73-4.125,2.85-8.77,5.82a5.958,5.958,0,0,0-1.44.72l-11.54,6.85a18.326,18.326,0,0,0-2.14,1.3c0,.01,0,.01-.01.02h-.01q-28.335,16.215-34.83,20.9-.12,10.935-12.01,24.39-6.975,8.055-8.9,10.45a33.072,33.072,0,0,0-6,12.49,56.217,56.217,0,0,1-3.85,8.53q-2.88,4.7-6.6,1.68a135.9,135.9,0,0,1,4.08-13.33,29.97,29.97,0,0,1,1.08-3.48l.85-2.29q-.135-.24.12-.72l.11-.6c.33-.8.61-1.6.85-2.4q3-11.3,1.08-13.82c-.24-.56-.44-.88-.6-.95-.08.23-.32.39-.72.47a123.349,123.349,0,0,0-4.57,14.9q-.6,2.4-1.2,4.2-1.44,2.9-3.24,6.01-5.415,10.1-12.14,11.05-1.68-5.4,3.73-13.69,6.72-11.415,7.44-14.06a13.415,13.415,0,0,0-1.44.84q.36-.96.72-2.16a69.253,69.253,0,0,0,4.93-14.17,82.66,82.66,0,0,0-10.81,16.33q-5.16,9.015-4.09,10.46l.12.24q-6.84,6.96-11.05,1.32,6.615-9.975,18.74-26.07a1.88,1.88,0,0,0-.48.36,28.532,28.532,0,0,1-10.09,3.12q-6.615.6-3.73-5.52a5.992,5.992,0,0,0,1.8-1.08h.36c.57-.32,1.12-.65,1.69-.97l.6-.6,1.2-.72a1.065,1.065,0,0,1,.48-.12l19.94-14.29a6.19,6.19,0,0,0,1.2-1.32,24.022,24.022,0,0,0,2.77-2.41q10.08-8.4,27.03-25.46,17.775-18.27,26.55-25.71a191.367,191.367,0,0,1,29.43-22.34c1.11-.54,2.24-1.1,3.36-1.69a105.08,105.08,0,0,0,9.01-5.46q.6-.375,1.2-.78c.41-.27.81-.56,1.21-.85,3.88-.65,7.71-1.39,11.46-2.22,3.19-.68,6.34-1.42,9.43-2.22.4,1.38.84,2.87,1.32,4.44a73.877,73.877,0,0,0,8.53,15.86A14.212,14.212,0,0,0,561.185,408.823Z" fill="#feb37c" fill-rule="evenodd"/>
            <path d="M514.675,434.193q-1.5,1.815-3.12,3.75C512.635,436.653,513.665,435.4,514.675,434.193Z" fill="#feb37c" fill-rule="evenodd"/>
            <path d="M426.765,517.295a61.593,61.593,0,0,0,1.444-6.608l-5.886,8.169a11,11,0,0,0-.724.842q.6-1.8,1.2-4.2a124.669,124.669,0,0,1,4.567-14.9c.4-.079.639-.239.72-.478.162.079.36.4.6.959q1.923,2.524-1.081,13.815C427.368,515.7,427.088,516.494,426.765,517.295Z" fill="#ed8a55" fill-rule="evenodd"/>
            <path d="M406.825,520.54l-.121-.242q-1.08-1.44,4.085-10.451A82.777,82.777,0,0,1,421.6,493.51a69.641,69.641,0,0,1-4.923,14.175q-.364,1.2-.72,2.162a6.182,6.182,0,0,0-1.922,2.284,3.052,3.052,0,0,0-.841.6,76.57,76.57,0,0,1-5.288,6.725A6.871,6.871,0,0,0,406.825,520.54Z" fill="#ed8a55" fill-rule="evenodd"/>
            <path d="M731.6,384.373a75.363,75.363,0,0,0-1.38-8.95q-2.04-9.975-2.77-13.1-.465-6-.35-15.37c.03-.23.07-.45.11-.66q-15.375,2.4-22.74-8.38-.63-.93-1.2-1.95a42.62,42.62,0,0,1-4.52-14.24.494.494,0,0,1,.03-.15c.02-.06.05-.13.08-.21q.21-18.345,19.04-23.25a29.965,29.965,0,0,0-8.11-3.18,32.464,32.464,0,0,1-9.96-.36,25.533,25.533,0,0,0-5.23,4.93,36.691,36.691,0,0,0-4.69,7.68,70.184,70.184,0,0,0-5.1,18.26c-.49,3.09-.87,6.38-1.14,9.85-.12,1.71-.22,3.47-.3,5.29q-.075,1.71-.12,3.48-.135,3.93-.18,8.17-.06,4.62,0,9.61c.01,1.52.03,3.06.06,4.63q.045,4.11.17,8.47a2.944,2.944,0,0,1,0,.42q.18,6.27.43,13.03c.08,1.95.19,3.93.3,5.95.08,2.1.18,4.25.3,6.42q-1.08,7.695-17.3,31.12-18.135,26.31-19.7,29.55-1.605,3.57-3.84,30.03,16.965,3.45,27.99,9.01a6.872,6.872,0,0,1,2.94,4.09c.15-1.96.32-3.86.48-5.71q.81-9.33,1.8-16.82,2.55-18.825,6.31-25.76,3.6-6.135,11.29-19.11,8.04-11.64,12.01-18.62,9.015-3.24,13.22-6.12a25.475,25.475,0,0,0,8.05-7.87,24.375,24.375,0,0,0,1.68-3.3,21.357,21.357,0,0,0,1.2-2.89A35.19,35.19,0,0,0,731.6,384.373Z" fill="#322d85" fill-rule="evenodd"/>
            <path d="M601.675,383.053l-.48.29-2.64,1.69q-11.055,7.2-21.15,14.29c-1.2.96-2.44,1.93-3.72,2.89q-4.8,3.36-9.37,6.84v.12a4.72,4.72,0,0,1-1.68.48,2.986,2.986,0,0,1-1.32-.72l-.13-.12a13.947,13.947,0,0,1-2.4-3,74.112,74.112,0,0,1-8.53-15.86l.01-.01c-.49-1.57-.93-3.05-1.33-4.43,2.61-.68,5.18-1.39,7.73-2.15l.02-.02q9.255-2.76,17.96-6.24a4.283,4.283,0,0,1,1.08-.36,17.616,17.616,0,0,0,1.68-.72l23.25-13.34q.45,7.02.78,15.02C601.505,379.533,601.6,381.313,601.675,383.053Z" fill="#322d85" fill-rule="evenodd"/>
            <path d="M473.983,388.275q-.843-1.323-1.683-2.524a16.4,16.4,0,0,1-1.5-3.123,13.363,13.363,0,0,1,1.258-11.293q1.924-2.883,7.092-9.729,5.164-6.966,23.184-12.373,7.221-1.661,14.292-3.3,4.539-1.056,9.014-2.1,16.837-3.9,32.792-7.688a127.624,127.624,0,0,0,31.052-11.113,107.822,107.822,0,0,0,13.034-7.927q1.171-.786,2.286-1.622,3.6-2.764,6.484-5.166a.791.791,0,0,1,.365-.36q2.4-2.163,4.563-4.324a17.493,17.493,0,0,1,1.922-1.683,36.752,36.752,0,0,0,2.641-3.483,49.738,49.738,0,0,0,8.831-14.956c.1-.3.2-.6.3-.9-.522.259-1.04.52-1.562.779q-8.586,4.265-15.8,7.868-8.731,4.335-15.437,7.69a122.023,122.023,0,0,1-28.108,10.211q-12.828,2.611-43.366,6.725c-.243.049-.482.089-.724.121q-4.656.641-8.29,1.143-5.922.81-9.13,1.26l-15.013.241q-16.821.118-33.277.479a74.512,74.512,0,0,1-33.876-7.326,137.925,137.925,0,0,1-30.753-19.582q.721-13.094,10.931-13.7a32.109,32.109,0,0,1,16.7,3.6q10.327,5.886,16.938,9.25,27.149,13.213,71.357,10.692,3.107-.164,6.124-.362,4.613-.27,9.014-.6a377.655,377.655,0,0,0,40.243-5.047q3.872-.751,7.448-1.561,21.633-4.933,32.193-12.613,12.258-8.935,19.28-15.2,2.495-2.214,4.325-4.084a31.9,31.9,0,0,0,4.147-4.986c.153-.311.315-.633.477-.961A40.9,40.9,0,0,1,637,253.608q2.774-2.542,8.771-2.221c.161.028.319.048.481.061q6.123.478,6.485,10.57a89.472,89.472,0,0,1-.36,10.452,2.389,2.389,0,0,1-.061.36c-.04.442-.081.884-.117,1.322q-.456,3.975-1.263,7.927-.351,1.842-.78,3.664a67.885,67.885,0,0,1-10.631,22.646q-13.939,20.325-40.665,33.516a192.536,192.536,0,0,1-37.541,13.513Q555.957,356.8,550.263,358q-2.761.6-20.66,2.4-2.088.168-3.964.3-5.348.454-9.014.841-6.1.57-7.565.9-20.727,4.324-30.093,16.7A35.275,35.275,0,0,0,473.983,388.275ZM641.26,233.607q-2.069-5.275-3.6-10.15a89.954,89.954,0,0,1-3.783-17.539q-2.045-19.821,8.649-34,6.972-11.292,20.182-18.5a92.022,92.022,0,0,1,9.131-3.846q1.869,1.664,4.563,4.147c.271.247.55.508.842.778q2.287,2.289,4.263,4.687a58.35,58.35,0,0,1,3.965,5.465,54.949,54.949,0,0,1,7.391,17.96q4.684,21.864-16.1,43.247c-1.12.959-2.124,1.881-3,2.761q-3.6-5.163-7.209-10.329A47.165,47.165,0,0,1,660.9,207.12a22.45,22.45,0,0,1-.364-13.214,5.705,5.705,0,0,0,.122-.6,27.986,27.986,0,0,0,.72-5.467,25.738,25.738,0,0,0-1.08-7.988c-.162.16-.32.32-.482.479q-3.72,3.248-6.367,10.211a62.831,62.831,0,0,0-3.241,11.893,36.962,36.962,0,0,0,.118,9.851q.157,1.231.364,2.523c.044.337.105.677.178,1.023a36.982,36.982,0,0,0,3.665,11.711q2.4,4.684,4.563,9.732c.186.4.368.8.542,1.2q-8.58.113-14.179,5.105a10.435,10.435,0,0,0-1.379-3.183q-.856-1.957-1.623-3.846Q641.831,235.055,641.26,233.607Zm-222.9,91.479,28.467.963-4.2.958q-26.427,7.33-31.955,19.823-2.16,4.563-.72,14.294-16.1-7.085-16.7-18.259-.237-4.445,4.086-10.091Q404.305,324.363,418.363,325.086Z" fill-rule="evenodd" fill="url(#q)"/>
            <path d="M507.5,320.4h1.323l-61.988,5.648-28.467-.963a53.692,53.692,0,0,1-22.707-27.749q-.6-1.563-1.08-3.124A137.925,137.925,0,0,0,425.329,313.8a74.512,74.512,0,0,0,33.876,7.326q16.457-.36,33.277-.479Zm122.414-35.8c-.1.3-.2.6-.3.9a49.738,49.738,0,0,1-8.831,14.956,36.752,36.752,0,0,1-2.641,3.483,17.493,17.493,0,0,0-1.922,1.683q-2.16,2.16-4.563,4.324a.791.791,0,0,0-.365.36q-2.882,2.4-6.484,5.166-1.117.834-2.286,1.622a107.822,107.822,0,0,1-13.034,7.927,127.624,127.624,0,0,1-31.052,11.113q-15.948,3.793-32.792,7.688-4.479,1.05-9.014,2.1-7.068,1.644-14.292,3.3-18.023,5.408-23.184,12.373-5.171,6.847-7.092,9.729a153.628,153.628,0,0,1-38.2-2.882q1.688-14.415,6.971-21.263,7.566-10.452,32.072-15.257,22.293-.376,43.726-2.4,4.527-.437,9.014-.961,14.921-1.69,29.43-4.2a103.947,103.947,0,0,0,13.936-3.6,143.643,143.643,0,0,0,24.624-10.991q7.342-4.065,14.956-9.189,9.927-6.669,20.3-15.138C629.233,285.162,629.573,284.881,629.909,284.6ZM711,252.647q-5.523,4.566-11.291,8.77a100.652,100.652,0,0,1-9.191,6.307l-1.141.662a26.749,26.749,0,0,1-6.728,3.183c-.246.053-.485.114-.72.18a20.436,20.436,0,0,0-4.563,1.2l-1.565-.061a62.7,62.7,0,0,0,3.127-17.359q-.121-1.44-.122-2.522-.721-13.335-14.175-14.3a10.142,10.142,0,0,0-1.8-.119q-1.632-.136-3.184-.119c-.174-.4-.356-.8-.542-1.2q-2.16-5.046-4.563-9.732a36.982,36.982,0,0,1-3.665-11.711c-.073-.346-.134-.686-.178-1.023q-.207-1.29-.364-2.523a36.962,36.962,0,0,1-.118-9.851,62.831,62.831,0,0,1,3.241-11.893q2.645-6.966,6.367-10.211c.162-.159.32-.319.482-.479a25.738,25.738,0,0,1,1.08,7.988,27.986,27.986,0,0,1-.72,5.467,5.705,5.705,0,0,1-.122.6,22.45,22.45,0,0,0,.364,13.214,47.165,47.165,0,0,0,5.644,11.172q3.6,5.163,7.209,10.329,1.923,2.406,3.964,5.047a88.528,88.528,0,0,1,9.369,14.715c.073.182.154.36.243.542a20.327,20.327,0,0,1,1.679,5.524q1.923-.959,3.725-1.921.377-.246.777-.48,2.295-1.493,4.507-2.882,2.015-1.246,3.964-2.4a35.281,35.281,0,0,0,9.851-8.771,41.669,41.669,0,0,0,6.97-12.613,50.052,50.052,0,0,0,2.282-11.533c.069-.848.129-1.687.182-2.523q.211-3,.3-5.886.018-1.089,0-2.162c0-.322,0-.641,0-.961a70.061,70.061,0,0,0-.663-7.749c-.146-1.143-.328-2.283-.538-3.424q-1.086-5.643-2.165-11.171-.958-4.446-1.8-8.888a30.305,30.305,0,0,1-.364-7.09,55.6,55.6,0,0,1,2.047-11.412,63.555,63.555,0,0,1,8.888,6.489,56.072,56.072,0,0,1,6.367,7.686q1.323,2.163,2.642,4.327a34.411,34.411,0,0,0,.36,11.772q.959,5.643,2.282,10.811.412,1.518.72,3.063.357,1.638.6,3.3c.158,1.282.36,2.484.6,3.6q.133,1.511.122,3.064a34.677,34.677,0,0,1-1.141,7.988c-.065.2-.126.4-.182.6q-.837,3.6-1.922,6.968a85.2,85.2,0,0,1-4.442,10.33,53.77,53.77,0,0,1-6.848,9.61,32.574,32.574,0,0,1-8.411,6.849Q714.361,250.965,711,252.647Z" fill-rule="evenodd" fill="url(#r)"/>
            <path d="M569.605,752.023a77.189,77.189,0,0,1-9.73,13.58,103.352,103.352,0,0,1-9.49,9.01q-6.975-4.56-10.57-6.85a42.289,42.289,0,0,0-11.9-5.16,3.179,3.179,0,0,0-.6.11l-.72.13a4.775,4.775,0,0,1-.6.23,4.656,4.656,0,0,0-.6.24c-.28.07-.56.16-.84.24q-9.93,3-14.77,16.94-1.08,3.12-4.09,14.18-2.16,9.12-4.08,13.09-3.855,9.735-12.74,28.83-5.4,14.43-4.32,25.95a6.526,6.526,0,0,1,.24,1.8l.48,2.65,1.08,3.36q-2.28,3.48-6.73,15.02-3.6,9.24-7.45,13.45l-7.09,19.34q-1.38,3.63-2.76,6.85a122.6,122.6,0,0,1-5.53,11.65,59.486,59.486,0,0,1-.54-12.97q.075-1.395.18-2.88c.65-10.5,1.04-15.9,1.2-16.22.17-12.74-3.336-21.7-10.121-27.894l-.441-.341c1.45-3.05,1.562-7.635,3-11.4.271-.884,4-11.94,5.76-18.99q4.695-20.415,7.09-30.51,9.495-37.23,27.87-55.02a31.209,31.209,0,0,1,7.81-7.08q6.36-3.855,9.49-5.89,11.055-7.455,11.65-16.94,3.975-26.55,6.01-59.22,4.455,4.08,10.81,9.25,20.43,17.175,28.48,40.96,1.56,4.56,3,17.3Q569,749.028,569.605,752.023Z" fill="#feb37c" fill-rule="evenodd"/>
            <path d="M741.565,216.313c-.09-3.02-.31-6.14-.65-9.38-.1-1.09-.22-2.19-.37-3.3.09,1.01.13,2.03.12,3.07a34.142,34.142,0,0,1-1.14,7.98q-.09.315-.18.6-.84,3.615-1.92,6.97a84.739,84.739,0,0,1-4.44,10.33,53.983,53.983,0,0,1-6.85,9.61,32.58,32.58,0,0,1-8.41,6.85c-2.24,1.28-4.49,2.48-6.73,3.6q-.36,4.215-.36,14.78,16.455-1.68,24.03-16.1a10.661,10.661,0,0,1,.84-1.92,26.111,26.111,0,0,0,2.4-6.37Q741.94,231.393,741.565,216.313Z" fill="#feb37c" fill-rule="evenodd"/>
            <path d="M696.1,765.123q-4.32,13.695-25.58,15.13-21.03,1.215-47.33,10.09-26.31,9.015-46.01,15.86-15.015,5.055-19.82,7.21,1.8-4.92-.01,0a4.326,4.326,0,0,0-1.44.6q-1.68,1.32-10.33,7.69a64.477,64.477,0,0,1-11.89,7.45q.48-9.135,10.33-26.67,7.68-14.535,8.17-24.15l9-6.6c.04.31.09.69.14,1.11-.04-.42-.08-.8-.13-1.11l6.37-4.81a72.48,72.48,0,0,0,7.2-4.2Q579.58,760.2,600,749.5q20.19-10.815,38.2-7.93-13.215-41.085-22.7-66.55-1.08-3-2.16-5.89a195,195,0,0,0,22.46-3.24q3.48-.48,6.61-.96l14.41-4.08a218.3,218.3,0,0,0,33.88-13.7,18.478,18.478,0,0,1,.48,3.24q.72,8.535,3,41.57,1.68,25.35,3.72,41.08Q700.67,751.553,696.1,765.123Z" fill="#feb37c" fill-rule="evenodd"/>
            <path d="M525.756,671.3a19.341,19.341,0,0,0,.121-2.162l.72-10.33a7.143,7.143,0,0,1,.122-1.082,3.251,3.251,0,0,0-.239-1.2Q563.715,669.858,600,669.738q-1.2,4.926-2.884,10.57-5.165,17.058-11.412,28.352-4.206,10.929-11.17,32.916a65.893,65.893,0,0,1-4.927,10.447q-.6-3-1.562-13.214-1.443-12.726-3-17.294-8.054-23.787-28.472-40.966Q530.2,675.379,525.756,671.3Z" fill="#ed9870" fill-rule="evenodd"/>
            <path d="M711,252.647q-.359,4.209-.36,14.776-.96,1.923-3.722,9.49a40.317,40.317,0,0,0-3.245,10.332,58.433,58.433,0,0,0-17.537-11.473,56.3,56.3,0,0,0-5.586-1.98q-1.59-.466-3.184-.841a20.436,20.436,0,0,1,4.563-1.2c.235-.066.474-.127.72-.18a26.749,26.749,0,0,0,6.728-3.183l1.141-.662a100.652,100.652,0,0,0,9.191-6.307Q705.469,257.212,711,252.647Z" fill="#ed9870" fill-rule="evenodd"/>
            <path d="M450.075,864.943v.01c.61.45,1.2.91,1.76,1.38C451.275,865.853,450.685,865.393,450.075,864.943Z" fill="#feb37c" fill-rule="evenodd"/>
            <path d="M939.665,211.383a12.74,12.74,0,0,1-5.11,6.55q-1.47,1.02-2.94,2.1c-.35.26-.71.53-1.08.78q-3.345,2.6-6.67,5.65a137.6,137.6,0,0,0-10.09,10.21q-.9,1.17-1.92,2.52-2.055,2.655-4.57,5.95-1.89,2.49-4.08,5.34-3.03,4.035-6.61,8.77-7.23,10.56-12.37,17.24-2.475,3.18-4.45,5.47c-.99,1.17-2,2.32-3,3.42a99.931,99.931,0,0,1-13.1,12.19q-2.145,1.68-4.321,3.131l-1.079-.639a32.682,32.682,0,0,0-.96-9.942,34.505,34.505,0,0,0-2.77-7.08q-3.12-6.78-7.99-8.83a12.158,12.158,0,0,0-5.774-.784l-.284.063q-1.246.451-2.522.9.465-.555.96-1.08,9.24-9.735,25.71-22.11,6.66-4.905,12.13-9.25c2.7-2.14,5.19-4.19,7.45-6.12.61-.52,1.21-1.05,1.8-1.56,2.11-1.84,4.02-3.58,5.71-5.23q2.835-2.745,4.86-5.11-.765-9.6,4.44-20c.89-1.71,1.88-3.46,3.01-5.22.06-.09.13-.17.18-.24q2.64-3.6,4.92-6.73,3.63-4.875,6.43-8.65,1.365-1.86,2.52-3.42c.84-1.13,1.6-2.15,2.29-3.07.75-.93,1.45-1.8,2.1-2.58q2.475-3.03,4.02-4.74,3.685-3.93,7.6-2.868a.407.407,0,0,1,.3.432q-.51,4.471-5.378,10.6c-.19.26-.37.5-.53.72a60.183,60.183,0,0,0-4.15,6.13c-.13.2-.25.41-.36.6a5.469,5.469,0,0,0-.72,2.89c.24,0,.4.03.48.12l.48.24,1.8.72.36.24a20.783,20.783,0,0,1,2.53,1.5,27.913,27.913,0,0,1,9.13,10.39C940.085,204.873,940.635,208.333,939.665,211.383Z" fill="#feb37c" fill-rule="evenodd"/>
            <path d="M640.475,490.866a15.731,15.731,0,0,0-1.44,6.006,39.446,39.446,0,0,0,2.282,15.5c.076.238.157.479.238.72q1.2,3.573,2.043,6.968,3.581,15.124-.239,27.27a53.141,53.141,0,0,1-4.081,9.491q-3.49,6.246-9.013,15.255c-6.566,10.17-9.121,26.447-2.366,60.1,2.978,10.379,19.191,58.122,21.319,68.681-2.665.989-33.824,3.74-35.892,3.917q-6.486.482-13.333.6-36.282.118-73.517-13.214-5.527-1.92-11.655-4.324c5.927-19.7,7.1-57.984,8.142-76.085,0-2-1.868-37.492-1.788-39.575.563-19.94,4.464-43.585,9.5-51.993q4.085-8.889,15.737-18.137,15.133-12.5,18.378-16.1a39.214,39.214,0,0,1,5.045-4.925,5.41,5.41,0,0,1,2.225-1.382,3.61,3.61,0,0,1,3.422.9,187.466,187.466,0,0,0,23.9,4.8q16.341,2.286,24.507,3.123A158.268,158.268,0,0,1,640.475,490.866Z" fill="#9c82cb" fill-rule="evenodd"/>
            <path d="M697.718,683.161a217.549,217.549,0,0,1-33.877,13.7l-14.623,4c-1.295-2.275-17.58-53.7-21.319-68.681-6.511-30.893-5.49-48.51,2.37-60.1q5.527-9.012,9.013-15.255a53.31,53.31,0,0,0,4.082-9.491q3.822-12.145.238-27.27-.849-3.395-2.042-6.968c-.082-.241-.163-.482-.239-.72a39.3,39.3,0,0,1-2.282-15.5,15.731,15.731,0,0,1,1.44-6.006,2.725,2.725,0,0,1,.963.241h.36l.482.122c.408.078.812.157,1.2.238q16.972,3.447,27.99,9.009a6.82,6.82,0,0,1,2.941,4.086,14.808,14.808,0,0,1,.421,5.166q-.352,4.456-.6,7.146-.291,3.7-.36,3.9-.122,8.17-1.683,24.748s-.162,8.968,0,12.253a70.51,70.51,0,0,0,2.282,12.132l.121.241q1.68,4.323,3.123,9.49l30.688,97.635Q703.24,680.4,697.718,683.161Z" fill="#8667bf" fill-rule="evenodd"/>
            <path d="M447.073,876.358q10.808,9.131,10.57,28.229-.243.483-1.2,16.218-.109,1.49-.178,2.885a59.156,59.156,0,0,0,.538,12.971q1.681,8.891-1.922,22.948-4.563,19.578-4.923,22.824a19.824,19.824,0,0,1-9.013,14.895q-8.526,5.646-16.695.121,11.65-1.2,13.815-8.651,6.723-13.573,3.722-36.758-1.8-12.133-2.161-18.259a91.838,91.838,0,0,1-.9-14.3q.079-2.262.3-4.324.6-14.777-.239-20.183c-.162-.4-.279-.72-.36-.96a15.1,15.1,0,0,0-4.208-7.93.769.769,0,0,0-.36-.481,2.532,2.532,0,0,0-.958-1.078,12.034,12.034,0,0,0-1.2-.722,8.409,8.409,0,0,0-4.684-1.8q-.122-.24-.243-.122l-.36-.119A36.071,36.071,0,0,1,436.5,878.28Q443.589,876.839,447.073,876.358Zm105.112-98.026q-.48,9.609-8.168,24.145-9.849,17.541-10.332,26.67-2.883,3.846-8.528,15.137a176.365,176.365,0,0,1-9.252,15.856q-12.974,17.661-29.551,10.211l-1.081-3.364q19.819-2.521,29.431-25.587,5.169-12.374,9.612-41.564.837-3.726,2.524-9.372,2.281-8.649,2.52-9.128,2.883-11.293-1.442-18.723c.008,0,.111-.019.12-.017a42.222,42.222,0,0,1,11.775,5.164q3.6,2.284,10.571,6.849Z" fill="#322d85" stroke="#322d85" stroke-miterlimit="10" stroke-width="0.5" fill-rule="evenodd"/>
            <path d="M423.168,996.727q10.086-4.444,13.213-14.175,4.326-12.852,0-38.923-.982-6.782-1.744-25.227-.1-1.8-.178-3.722-.843-20.061-1.08-20.785-1.445-4.2-7.569-7.445a16.884,16.884,0,0,0-2.763-1.321,16.627,16.627,0,0,1,3.362-3.366l.36.119q.122-.118.243.122a8.409,8.409,0,0,1,4.684,1.8,12.034,12.034,0,0,1,1.2.722,2.532,2.532,0,0,1,.958,1.078.769.769,0,0,1,.36.481,15.1,15.1,0,0,1,4.208,7.93c.081.24.2.56.36.96q.837,5.408.239,20.183-.219,2.06-.3,4.324a91.838,91.838,0,0,0,.9,14.3q.358,6.121,2.161,18.259,3,23.186-3.722,36.758-2.166,7.449-13.815,8.651,0-.125-.243,0A2.384,2.384,0,0,0,423.168,996.727ZM527.92,762.6q4.32,7.447,1.44,18.74-.237.478-2.52,9.128-1.687,5.647-2.524,9.372-4.443,29.19-9.612,41.564-9.606,23.064-29.431,25.587l-.481-2.641a6.468,6.468,0,0,0-.239-1.8,24.886,24.886,0,0,0,9.968-1.563q7.689-2.643,12.857-13.453,5.285-11.051,10.692-35.319,9.6-41.326,8.41-44.928l-1.926-3.724c.279-.089.559-.169.842-.24a4.886,4.886,0,0,1,.6-.241,5.216,5.216,0,0,0,.6-.239l.72-.121A3.664,3.664,0,0,1,527.92,762.6Z" fill="#262366" stroke="#262366" stroke-miterlimit="10" stroke-width="0.5" fill-rule="evenodd"/>
            <path d="M416.138,913q.534-9.772.42-10.572,1.082-11.05,6.489-17.3a16.884,16.884,0,0,1,2.763,1.321q6.123,3.24,7.569,7.445.237.723,1.08,20.785.073,1.924.178,3.722.759,18.447,1.744,25.227,4.326,26.068,0,38.923-3.124,9.734-13.213,14.175-13.579-10.571-13.337-32.436a130.175,130.175,0,0,1,1.8-19.579q2.4-12.853,3.241-18.741a65.33,65.33,0,0,0,1.2-11.891C416.1,913.71,416.118,913.351,416.138,913Zm68.415-50.454q-1.078-11.532,4.325-25.947,8.889-19.1,12.735-28.831a69.956,69.956,0,0,0,4.082-13.1q3-11.049,4.085-14.174,4.844-13.948,14.774-16.939l1.926,3.724q1.2,3.6-8.41,44.928-5.408,24.267-10.692,35.319-5.164,10.811-12.857,13.453A24.886,24.886,0,0,1,484.553,862.543Z" fill="#201e57" stroke="#201e57" stroke-miterlimit="10" stroke-width="0.5" fill-rule="evenodd"/>
          </g>
        </g>
      </g>
      <path d="M47.055,913.278a1.539,1.539,0,1,1-1.539-1.539A1.539,1.539,0,0,1,47.055,913.278Z" fill="#fff"/>
      <path d="M345.483,700.851a1.539,1.539,0,1,1-1.539-1.539A1.539,1.539,0,0,1,345.483,700.851Z" fill="#fff"/>
      <path d="M947.628,803.983a1.54,1.54,0,1,1-1.539-1.539A1.539,1.539,0,0,1,947.628,803.983Z" fill="#fff"/>
      <path d="M1081.1,884.34a1.54,1.54,0,1,1-1.54-1.539A1.54,1.54,0,0,1,1081.1,884.34Z" fill="#fff"/>
      <path d="M1170.587,777.319a1.539,1.539,0,1,1-1.539-1.539A1.539,1.539,0,0,1,1170.587,777.319Z" fill="#fff"/>
      <path d="M715.608,543.7a1.539,1.539,0,1,1-1.539-1.539A1.539,1.539,0,0,1,715.608,543.7Z" fill="#fff"/>
      <path d="M1096.371,222.434v5.587q-5.352-.916-10.692-1.623.018-2.881.061-5.766Q1091.05,221.448,1096.371,222.434Z" fill="#651dc4" fill-rule="evenodd" opacity="0.44"/>
      <path d="M525.635,117.023a65.076,65.076,0,0,1,3.225-5.938q22.134-6.123,53.232-11.6,89.4-15.861,208.973-18.56,24.381-.54,50.033-.538,151.363,0,258.635,19.1,28.022,4.906,48.775,10.332,55.815,14.606,58.8,32.976l.057.36a11.155,11.155,0,0,1,.121,1.382v.96q-.5,15.092-36.036,27.75-3.222,1.149-6.732,2.283-11.4,3.669-25.825,7.147l-3.9.9q-8.769,2.044-18.621,4.025h-.057q-5.1.99-10.453,1.98l-9.447-3.227-.044-.015c.882-.16,1.72-.322,2.524-.479q3.028-.507,5.887-1.024c.359-.055.724-.115,1.08-.178q.909-.169,1.8-.3l11.473-2.284h.06q2.72-.564,5.348-1.141,2.531-.534,4.984-1.08,20.456-4.512,35.195-9.31,3.5-1.132,6.671-2.282c1.121-.407,2.225-.805,3.3-1.2q19.74-7.285,27.331-19.341a11.267,11.267,0,0,0,.481-2.043,2.485,2.485,0,0,0,.057-.36,1.365,1.365,0,0,1,0-.181v-.479l-.057-.362c-.093-.751-.481-2.282-.481-2.282q-5.073-14.632-53.278-27.089-20.862-5.4-49.852-10.391Q991.977,85.308,841.1,85.307q-26.911,0-52.436.6Q671.08,88.736,582.933,104.529,548.582,110.415,525.635,117.023Z" fill="#2180c2" fill-rule="evenodd"/>
    </g>
  </g>
</svg>
